<svg xmlns="http://www.w3.org/2000/svg" width="122.332" height="115.07" viewBox="0 0 122.332 115.07">
  <g id="Video" transform="translate(-47.306 -107.272)">
    <path id="Path_310" data-name="Path 310" d="M14.194,20.551c3.4-3.4,26.895-28.31,47-18.119s29.726,22.365,40.767,45.3c3.554,9.106,5.945,35.954-26.895,57.187S17.874,93.875,14.194,89.346-15.816,57.921,14.194,20.551Z" transform="matrix(-0.105, 0.995, -0.995, -0.105, 169.638, 118.988)" fill="#fafdff"/>
    <ellipse id="Ellipse_21" data-name="Ellipse 21" cx="42.85" cy="42.85" rx="42.85" ry="42.85" transform="translate(59.296 200.104) rotate(-80.592)" fill="#f0f8ff"/>
    <g id="video-2" data-name="video" transform="translate(73.685 132.531)">
      <g id="Group_1195" data-name="Group 1195" transform="translate(1.13 1.13)">
        <path id="Path_375" data-name="Path 375" d="M80.979,40H18.825A2.824,2.824,0,0,0,16,42.825V46.78H83.8V42.825A2.824,2.824,0,0,0,80.979,40Z" transform="translate(-16 -40)" fill="#ff6e2e"/>
        <path id="Path_376" data-name="Path 376" d="M115.418,128H66.825A2.824,2.824,0,0,0,64,130.825v28.252a2.824,2.824,0,0,0,2.825,2.825h48.593a2.824,2.824,0,0,0,2.825-2.825V130.825A2.824,2.824,0,0,0,115.418,128ZM85.471,150.6V139.3l11.3,5.65Z" transform="translate(-57.22 -115.569)" fill="#ff6e2e"/>
        <ellipse id="Ellipse_69" data-name="Ellipse 69" cx="2.398" cy="2.158" rx="2.398" ry="2.158" transform="translate(41.576 49.696)" fill="#ff6e2e"/>
      </g>
      <g id="Group_1196" data-name="Group 1196" transform="translate(0 0)">
        <path id="Path_377" data-name="Path 377" d="M74.109,32H11.955A3.96,3.96,0,0,0,8,35.955V91.328a3.96,3.96,0,0,0,3.955,3.955H74.109a3.96,3.96,0,0,0,3.955-3.955V35.955A3.96,3.96,0,0,0,74.109,32ZM11.955,34.26H74.109a1.7,1.7,0,0,1,1.7,1.7V38.78H10.26V35.955A1.7,1.7,0,0,1,11.955,34.26ZM74.109,93.024H11.955a1.7,1.7,0,0,1-1.7-1.7V41.041H75.8V91.328a1.7,1.7,0,0,1-1.7,1.7Z" transform="translate(-8 -32)" fill="#913005"/>
        <path id="Path_378" data-name="Path 378" d="M41.13,58.26h1.13a1.13,1.13,0,0,0,0-2.26H41.13a1.13,1.13,0,1,0,0,2.26Z" transform="translate(-35.48 -52.61)" fill="#913005"/>
        <path id="Path_379" data-name="Path 379" d="M73.13,58.26h1.13a1.13,1.13,0,1,0,0-2.26H73.13a1.13,1.13,0,1,0,0,2.26Z" transform="translate(-62.959 -52.61)" fill="#913005"/>
        <path id="Path_380" data-name="Path 380" d="M105.13,58.26h1.13a1.13,1.13,0,1,0,0-2.26h-1.13a1.13,1.13,0,0,0,0,2.26Z" transform="translate(-90.439 -52.61)" fill="#913005"/>
        <path id="Path_381" data-name="Path 381" d="M108.548,120H59.955A3.96,3.96,0,0,0,56,123.955v28.252a3.96,3.96,0,0,0,3.955,3.955h48.593a3.96,3.96,0,0,0,3.955-3.955V123.955A3.96,3.96,0,0,0,108.548,120Zm1.7,32.207a1.7,1.7,0,0,1-1.7,1.7H59.955a1.7,1.7,0,0,1-1.7-1.7V123.955a1.7,1.7,0,0,1,1.7-1.7h48.593a1.7,1.7,0,0,1,1.7,1.7Z" transform="translate(-49.22 -107.569)" fill="#913005"/>
        <path id="Path_382" data-name="Path 382" d="M220.936,205.77l-11.3-5.65A1.13,1.13,0,0,0,208,201.13v11.3a1.13,1.13,0,0,0,1.635,1.011l11.3-5.65a1.13,1.13,0,0,0,0-2.021ZM210.26,210.6v-7.644l7.644,3.822Z" transform="translate(-179.748 -176.269)" fill="#913005"/>
        <path id="Path_383" data-name="Path 383" d="M128.593,386.268H118.228a3.39,3.39,0,0,0-6.392,0H81.13a1.13,1.13,0,0,0,0,2.26h30.706a3.39,3.39,0,0,0,6.392,0h10.365a1.13,1.13,0,0,0,0-2.26Zm-13.561,2.26a1.13,1.13,0,1,1,1.13-1.13A1.13,1.13,0,0,1,115.032,388.529Z" transform="translate(-69.829 -334.285)" fill="#913005"/>
      </g>
    </g>
  </g>
</svg>
