<svg width="32" height="32" viewBox="0 0 32 32" fill="none" xmlns="http://www.w3.org/2000/svg">
<path d="M22.0007 26.6666H3.33398C2.23132 26.6666 1.33398 25.7693 1.33398 24.6666V12.6666C1.33398 11.564 2.23132 10.6666 3.33398 10.6666H22.0007C23.1033 10.6666 24.0007 11.564 24.0007 12.6666V24.6666C24.0007 25.7693 23.1033 26.6666 22.0007 26.6666ZM3.33398 12C2.96598 12 2.66732 12.2993 2.66732 12.6666V24.6666C2.66732 25.034 2.96598 25.3333 3.33398 25.3333H22.0007C22.3687 25.3333 22.6673 25.034 22.6673 24.6666V12.6666C22.6673 12.2993 22.3687 12 22.0007 12H3.33398Z" fill="#FF6E2E"/>
<path d="M8.00065 22C6.52998 22 5.33398 20.804 5.33398 19.3333C5.33398 17.8626 6.52998 16.6666 8.00065 16.6666C9.47132 16.6666 10.6673 17.8626 10.6673 19.3333C10.6673 20.804 9.47132 22 8.00065 22ZM8.00065 18C7.26532 18 6.66732 18.598 6.66732 19.3333C6.66732 20.0686 7.26532 20.6666 8.00065 20.6666C8.73598 20.6666 9.33398 20.0686 9.33398 19.3333C9.33398 18.598 8.73598 18 8.00065 18Z" fill="#FF6E2E"/>
<path d="M17.3327 22C15.862 22 14.666 20.804 14.666 19.3333C14.666 17.8626 15.862 16.6666 17.3327 16.6666C18.8033 16.6666 19.9993 17.8626 19.9993 19.3333C19.9993 20.804 18.8033 22 17.3327 22ZM17.3327 18C16.5973 18 15.9993 18.598 15.9993 19.3333C15.9993 20.0686 16.5973 20.6666 17.3327 20.6666C18.068 20.6666 18.666 20.0686 18.666 19.3333C18.666 18.598 18.068 18 17.3327 18Z" fill="#FF6E2E"/>
<path d="M17.334 18H8.00065C7.63198 18 7.33398 17.7013 7.33398 17.3333C7.33398 16.9653 7.63198 16.6666 8.00065 16.6666H17.334C17.7027 16.6666 18.0007 16.9653 18.0007 17.3333C18.0007 17.7013 17.7027 18 17.334 18Z" fill="#FF6E2E"/>
<path d="M15.3333 12C14.9647 12 14.6667 11.7013 14.6667 11.3333V8.66663C14.6667 8.29929 14.368 7.99996 14 7.99996H0.666667C0.298 7.99996 0 7.70129 0 7.33329C0 6.96529 0.298 6.66663 0.666667 6.66663H14C15.1027 6.66663 16 7.56396 16 8.66663V11.3333C16 11.7013 15.702 12 15.3333 12Z" fill="#FF6E2E"/>
<path d="M20.6667 12C20.298 12 20 11.7014 20 11.3334V7.33337C20 6.23071 20.8973 5.33337 22 5.33337H24.6667C25.0353 5.33337 25.3333 5.63204 25.3333 6.00004C25.3333 6.36804 25.0353 6.66671 24.6667 6.66671H22C21.632 6.66671 21.3333 6.96604 21.3333 7.33337V11.3334C21.3333 11.7014 21.0353 12 20.6667 12Z" fill="#FF6E2E"/>
<path d="M30 8H26C24.8973 8 24 7.10267 24 6C24 4.89733 24.8973 4 26 4H30C31.1027 4 32 4.89733 32 6C32 7.10267 31.1027 8 30 8ZM26 5.33333C25.632 5.33333 25.3333 5.63267 25.3333 6C25.3333 6.36733 25.632 6.66667 26 6.66667H30C30.368 6.66667 30.6667 6.36733 30.6667 6C30.6667 5.63267 30.368 5.33333 30 5.33333H26Z" fill="#FF6E2E"/>
<path d="M30.615 24.9747C30.435 24.9747 30.2544 24.9394 30.083 24.868L23.0764 21.9487C22.7364 21.8074 22.5757 21.4167 22.7177 21.0767C22.8597 20.7367 23.2517 20.5767 23.5897 20.718L30.5957 23.6374L30.6664 23.59V15.0767L30.339 14.414L30.5957 15.0294L23.5897 17.9487C23.251 18.0914 22.8597 17.93 22.7177 17.59C22.5757 17.25 22.7364 16.86 23.0764 16.718L30.0824 13.7987C30.5097 13.6194 30.997 13.6667 31.383 13.9247C31.769 14.1827 31.9997 14.6134 31.9997 15.0767V23.59C31.9997 24.0534 31.769 24.484 31.3837 24.742C31.1524 24.896 30.8844 24.9747 30.615 24.9747Z" fill="#FF6E2E"/>
</svg>
