<svg width="25" height="25" viewBox="0 0 25 25" fill="none" xmlns="http://www.w3.org/2000/svg">
<circle cx="12.5" cy="12.5" r="12.25" stroke="#FF6E2E" stroke-width="0.5"/>
<path d="M8.8891 17.375C8.15268 17.375 7.58071 17.9626 7.58071 18.6875C7.58071 19.4124 8.15296 20 8.8891 20C9.62525 20 10.1975 19.4124 10.1975 18.6875C10.1975 17.9626 9.62525 17.375 8.8891 17.375ZM19.8201 7.22309C19.6507 7.00187 19.3923 6.875 19.0868 6.875H7.36404L7.32237 6.53348C7.26125 6.22397 6.98624 6 6.66678 6H4.64169C4.29862 6 4 6.29395 4 6.63164C4 6.96934 4.29862 7.3125 4.64169 7.3125H6.09009L7.76461 15.9668C7.85017 16.2758 8.12518 16.5 8.44464 16.5H17.5561C17.9242 16.5 18.2228 16.2061 18.2228 15.8684C18.2228 15.4801 17.9256 15.1875 17.5561 15.1875H8.99744L8.74187 13.875H17.5867C17.9837 13.875 18.3323 13.6161 18.4415 13.2404L19.9654 8.01496C20.0424 7.72402 19.9896 7.44457 19.8201 7.22309ZM15.5561 10.375C15.5561 10.6843 15.2989 10.9375 14.9846 10.9375H13.9052V11.9998C13.906 12.3082 13.6476 12.5625 13.3337 12.5625C13.0198 12.5625 12.7623 12.3094 12.7623 12V10.9383H11.6837C11.3698 10.9383 11.1114 10.684 11.1114 10.375C11.1114 10.066 11.3685 9.81254 11.6828 9.81254H12.7623V8.75078C12.7623 8.44152 13.0195 8.18832 13.3337 8.18832C13.648 8.18832 13.9052 8.44141 13.9052 8.75078V9.81309H14.9846C15.2977 9.81172 15.5561 10.066 15.5561 10.375ZM16.8645 17.375C16.128 17.375 15.5561 17.9626 15.5561 18.6875C15.5561 19.4124 16.153 20 16.8645 20C17.5759 20 18.1728 19.4124 18.1728 18.6875C18.1728 17.9626 17.6256 17.375 16.8645 17.375Z" fill="#FF6E2E"/>
</svg>
