<svg id="Linkedin" xmlns="http://www.w3.org/2000/svg" width="31.131" height="31.131" viewBox="0 0 31.131 31.131">
  <circle id="Ellipse_224" data-name="Ellipse 224" cx="15.565" cy="15.565" r="15.565" transform="translate(0 0)" fill="#4467ad"/>
  <g id="Group_1464" data-name="Group 1464" transform="translate(6.582 5.673)">
    <g id="Group_1463" data-name="Group 1463">
      <path id="Path_1833" data-name="Path 1833" d="M817.162,456.71c.256-.287.466-.579.729-.826a4,4,0,0,1,2.877-1.135,6.66,6.66,0,0,1,1.809.22,3.535,3.535,0,0,1,2.51,2.64,11.05,11.05,0,0,1,.334,3.025c0,2.15-.006,4.3,0,6.45,0,.2-.056.254-.254.252q-1.661-.014-3.323,0c-.2,0-.237-.059-.236-.243q.009-3.069,0-6.138a5.54,5.54,0,0,0-.178-1.524,1.713,1.713,0,0,0-1.884-1.335,2.06,2.06,0,0,0-2.164,2.056,7.6,7.6,0,0,0-.059.96c0,1.99,0,3.98.005,5.969,0,.2-.049.257-.251.255q-1.674-.015-3.347,0c-.179,0-.231-.047-.23-.228q.008-5.909,0-11.818c0-.195.064-.24.248-.239q1.59.012,3.179,0c.2,0,.245.061.241.246C817.155,455.768,817.162,456.239,817.162,456.71Z" transform="translate(-806.975 -448.941)" fill="#fefefe"/>
      <path id="Path_1834" data-name="Path 1834" d="M790.305,462.221c0,1.949,0,3.9,0,5.847,0,.217-.053.282-.277.28-1.107-.012-2.215-.009-3.322,0-.177,0-.231-.043-.231-.226q.008-5.919,0-11.838c0-.163.039-.221.213-.22,1.124.007,2.247.009,3.37,0,.215,0,.245.081.245.267Q790.3,459.274,790.305,462.221Z" transform="translate(-786.187 -449.95)" fill="#fefefe"/>
      <path id="Path_1835" data-name="Path 1835" d="M789.633,431.765a2.212,2.212,0,1,1-2.208-2.2A2.219,2.219,0,0,1,789.633,431.765Z" transform="translate(-785.21 -429.565)" fill="#fefefe"/>
    </g>
  </g>
</svg>
