<svg width="24" height="24" viewBox="0 0 24 24" fill="none" xmlns="http://www.w3.org/2000/svg">
<path d="M20.4155 13.027L20.021 12.799C19.5515 12.5283 19.271 12.0422 19.271 11.5C19.271 10.9578 19.5515 10.4717 20.021 10.201L20.4155 9.973C21.4925 9.3505 21.8607 7.9765 21.239 6.8995L20.489 5.6005C19.8687 4.52575 18.4895 4.15675 17.4155 4.777L17.021 5.00425C16.5515 5.27575 15.9897 5.27575 15.521 5.00425C15.0515 4.73275 14.771 4.2475 14.771 3.70525V3.25C14.771 2.0095 13.7615 1 12.521 1H11.021C9.78046 1 8.77096 2.0095 8.77096 3.25V3.706C8.77096 4.24825 8.49046 4.7335 8.02096 5.005C7.55146 5.27575 6.99046 5.2765 6.52096 5.005L6.12646 4.777C5.05246 4.15675 3.67321 4.52575 3.05221 5.6005L2.30221 6.8995C1.68046 7.9765 2.04871 9.35125 3.12571 9.973L3.52096 10.201C3.99046 10.4717 4.27096 10.9578 4.27096 11.5C4.27096 12.0422 3.99046 12.5283 3.52096 12.799L3.12646 13.027C2.04946 13.6487 1.68121 15.0235 2.30296 16.1005L3.05296 17.3995C3.67396 18.4742 5.05321 18.8433 6.12646 18.223L6.52096 17.9958C6.99046 17.7235 7.55146 17.725 8.02096 17.9958C8.49046 18.2673 8.77096 18.7525 8.77096 19.2948V19.75C8.77096 20.9905 9.78046 22 11.021 22H12.521C13.7615 22 14.771 20.9905 14.771 19.75V19.294C14.771 18.7518 15.0515 18.2665 15.521 17.995C15.9897 17.7243 16.5515 17.7235 17.021 17.995L17.4155 18.223C18.4895 18.8425 19.8687 18.4735 20.489 17.3995L21.239 16.1005C21.8607 15.0235 21.4925 13.6487 20.4155 13.027ZM11.771 15.25C9.70321 15.25 8.02096 13.5677 8.02096 11.5C8.02096 9.43225 9.70321 7.75 11.771 7.75C13.8387 7.75 15.521 9.43225 15.521 11.5C15.521 13.5677 13.8387 15.25 11.771 15.25Z" fill="#FF6E2E"/>
</svg>
