<svg width="24" height="24" viewBox="0 0 24 24" fill="none" xmlns="http://www.w3.org/2000/svg">
<path d="M1.50781 12.295V12.795V21.6289H6.54297V20.3848L6.56055 20.3907C7.87413 20.8276 9.74747 21.2113 11.6035 21.8751L11.7422 21.9239L11.8848 21.8907C12.4685 21.755 14.0341 21.2682 15.9082 20.6661C17.7823 20.064 19.924 19.3555 21.5137 18.8067C22.2758 18.5431 22.6824 17.6905 22.4023 16.9337V16.9317V16.9297C22.1081 16.1554 21.2582 15.814 20.5313 16.0371L15.6289 17.5351C15.6245 17.0249 15.3693 16.5222 14.9551 16.1973L14.9297 16.1777L14.9023 16.1621C12.8085 14.9147 12.6274 14.7599 9.6836 13.1953L9.54883 13.123L9.39649 13.1387C8.38701 13.2467 6.67784 13.5285 6.54298 13.5508V12.2949L1.50781 12.295ZM9.34961 14.1543C12.042 15.5882 12.3487 15.8052 14.3398 16.9922C14.654 17.2432 14.7368 17.5502 14.5449 17.8262C14.4408 17.9761 14.3385 18.0351 14.1875 18.0606C14.038 18.0858 13.8281 18.0592 13.5918 17.9551C12.6911 17.5391 12.2031 17.2714 11.2109 16.7149L10.7754 16.4707L10.2871 17.3418L10.7227 17.5879C11.7181 18.1462 12.2478 18.4356 13.1738 18.8633L13.1758 18.8653H13.1797C13.5584 19.0342 13.9604 19.1114 14.3536 19.045C14.5736 19.0079 14.7841 18.9155 14.9727 18.7833L20.8243 16.9923C21.0567 16.9209 21.3668 17.0371 21.4629 17.2813C21.5537 17.5312 21.4429 17.7731 21.1875 17.8614C19.6087 18.4064 17.4713 19.1149 15.6036 19.7149C13.7887 20.298 12.2598 20.7624 11.7696 20.8829C9.89648 20.2312 8.03951 19.8288 6.87504 19.4415L6.54301 19.3302V14.5665L6.62504 14.5528C6.62504 14.5528 8.33852 14.273 9.34961 14.1543Z" fill="#FF6E2E"/>
<path d="M16.1191 2.07617C16.3175 2.07617 16.5268 2.16414 16.7695 2.40234C17.0122 2.64055 17.2641 3.02395 17.4785 3.52148C17.713 4.06553 17.8983 4.74886 18.0234 5.50977H14.2148C14.34 4.74886 14.5253 4.06553 14.7598 3.52148C14.9742 3.02395 15.226 2.64055 15.4688 2.40234C15.7115 2.16414 15.9208 2.07617 16.1191 2.07617ZM14.207 2.42383C14.076 2.64049 13.9516 2.87012 13.8418 3.125C13.55 3.80206 13.3391 4.6183 13.2051 5.50977H11.0449C11.615 4.08435 12.7647 2.9607 14.207 2.42383ZM18.0312 2.42383C19.4733 2.96072 20.6236 4.08429 21.1934 5.50977H19.0332C18.8992 4.6183 18.6883 3.80206 18.3965 3.125C18.2866 2.87012 18.1623 2.64049 18.0312 2.42383ZM10.75 6.50977H10.8164H13.0898C13.0654 6.84776 13.0469 7.18931 13.0469 7.54297C13.0469 7.89663 13.0654 8.23818 13.0898 8.57617H10.8164H10.75C10.6862 8.24139 10.6504 7.89665 10.6504 7.54297C10.6504 7.18929 10.6862 6.8445 10.75 6.50977ZM14.0918 6.50977H18.1465C18.1732 6.84587 18.1914 7.18843 18.1914 7.54297C18.1914 7.8975 18.1732 8.24006 18.1465 8.57617H14.0918C14.0651 8.24006 14.0469 7.8975 14.0469 7.54297C14.0469 7.18843 14.0651 6.84587 14.0918 6.50977ZM19.1484 6.50977H21.4219H21.4863C21.5501 6.8445 21.5859 7.18929 21.5859 7.54297C21.5859 7.89665 21.5501 8.24139 21.4863 8.57617H21.4219H19.1484C19.1729 8.23818 19.1914 7.89663 19.1914 7.54297C19.1914 7.18931 19.1729 6.84776 19.1484 6.50977ZM11.0449 9.57617H13.2051C13.3391 10.4676 13.55 11.2839 13.8418 11.9609C13.9516 12.2158 14.076 12.4454 14.207 12.6621C12.7648 12.1248 11.615 11.0019 11.0449 9.57617ZM14.2148 9.57617H18.0234C17.8983 10.3371 17.713 11.0204 17.4785 11.5645C17.2641 12.062 17.0122 12.4473 16.7695 12.6855C16.5268 12.9237 16.3175 13.0117 16.1191 13.0117C15.9208 13.0117 15.7115 12.9237 15.4688 12.6855C15.226 12.4473 14.9742 12.062 14.7598 11.5645C14.5253 11.0204 14.34 10.3371 14.2148 9.57617ZM19.0332 9.57617H21.1934C20.6237 11.0019 19.4731 12.1248 18.0312 12.6621C18.1623 12.4454 18.2866 12.2158 18.3965 11.9609C18.6883 11.2839 18.8992 10.4676 19.0332 9.57617Z" fill="#FF6E2E"/>
</svg>
