<svg width="40" height="40" viewBox="0 0 40 40" fill="none" xmlns="http://www.w3.org/2000/svg">
<circle cx="20" cy="20" r="19.5" stroke="#E5E5E5"/>
<g clip-path="url(#clip0_655_2806)">
<path d="M20.9375 10C25.9414 10 30 14.0586 30 19.0625C30 19.5821 29.582 20 29.0625 20C28.543 20 28.125 19.5821 28.125 19.0625C28.125 15.0938 24.9062 11.875 20.9375 11.875C20.418 11.875 20 11.4571 20 10.9375C20 10.418 20.418 10 20.9375 10ZM21.25 17.5C21.5815 17.5 21.8995 17.6317 22.1339 17.8661C22.3683 18.1006 22.5 18.4185 22.5 18.75C22.5 19.0815 22.3683 19.3995 22.1339 19.6339C21.8995 19.8683 21.5815 20 21.25 20C20.9185 20 20.6005 19.8683 20.3661 19.6339C20.1317 19.3995 20 19.0815 20 18.75C20 18.4185 20.1317 18.1006 20.3661 17.8661C20.6005 17.6317 20.9185 17.5 21.25 17.5ZM20 14.6875C20 14.168 20.418 13.75 20.9375 13.75C23.8711 13.75 26.25 16.1289 26.25 19.0625C26.25 19.5821 25.832 20 25.3125 20C24.793 20 24.375 19.5821 24.375 19.0625C24.375 17.1641 22.8359 15.625 20.9375 15.625C20.418 15.625 20 15.2071 20 14.6875ZM14.5898 10.0547C15.3477 9.84768 16.1406 10.2344 16.4414 10.961L18.0039 14.711C18.2695 15.3477 18.0859 16.086 17.5508 16.5196L15.625 18.0977C16.9258 20.8477 19.1523 23.0742 21.9023 24.375L23.4766 22.4492C23.9141 21.9141 24.6484 21.7305 25.2852 21.9961L29.0352 23.5586C29.7617 23.8594 30.1484 24.6524 29.9414 25.4102L29.0039 28.8477C28.8203 29.5274 28.2031 30 27.5 30C17.8359 30 10 22.1641 10 12.5C10 11.7969 10.4727 11.1797 11.1523 10.9922L14.5898 10.0547Z" fill="#1B245C"/>
</g>
<defs>
<clipPath id="clip0_655_2806">
<rect width="20" height="20" fill="white" transform="translate(10 10)"/>
</clipPath>
</defs>
</svg>
