<svg id="Youtube" xmlns="http://www.w3.org/2000/svg" width="31.131" height="31.131" viewBox="0 0 31.131 31.131">
  <circle id="Ellipse_223" data-name="Ellipse 223" cx="15.565" cy="15.565" r="15.565" transform="translate(0 0)" fill="#da0000"/>
  <path id="Path_1832" data-name="Path 1832" d="M575.32,443.233a2.6,2.6,0,0,0-1.835-1.835c-1.618-.434-8.108-.434-8.108-.434s-6.49,0-8.108.434a2.6,2.6,0,0,0-1.835,1.835,28.971,28.971,0,0,0,0,9.991,2.6,2.6,0,0,0,1.835,1.835c1.618.433,8.108.433,8.108.433s6.49,0,8.108-.433a2.6,2.6,0,0,0,1.835-1.835,28.971,28.971,0,0,0,0-9.991ZM563.3,451.341v-6.226l5.392,3.113Z" transform="translate(-549.812 -432.663)" fill="#fff"/>
</svg>
