<svg width="20" height="20" viewBox="0 0 20 20" fill="none" xmlns="http://www.w3.org/2000/svg">
<path d="M10 0C4.52174 0 0 4.52174 0 10C0 12.087 0.608696 14 1.73913 15.6522L0.608696 19.0435C0.521739 19.2174 0.608696 19.3913 0.695652 19.4783C0.869565 19.5652 1.04348 19.6522 1.21739 19.5652L4.69565 18.4348C6.26087 19.4783 8.17391 20 10 20C15.4783 20 20 15.4783 20 10C20 4.52174 15.4783 0 10 0ZM16 14.087C15.7391 14.8696 14.6957 15.5652 13.8261 15.7391C13.6522 15.7391 13.4783 15.8261 13.2174 15.8261C12.5217 15.8261 11.6522 15.5652 10.2609 15.0435C8.52174 14.3478 6.78261 12.7826 5.3913 10.7826L5.30435 10.6957C4.78261 10 4 8.78261 4 7.47826C4 6 4.78261 5.21739 5.04348 4.86957C5.3913 4.52174 5.82609 4.34783 6.34783 4.34783C6.43478 4.34783 6.52174 4.34783 6.6087 4.34783H6.69565C7.13043 4.34783 7.3913 4.52174 7.65217 5.04348L7.82609 5.3913C8.08696 6 8.43478 6.95652 8.52174 7.13043C8.69565 7.47826 8.69565 7.73913 8.52174 8C8.43478 8.17391 8.34783 8.34783 8.17391 8.52174C8.08696 8.6087 8 8.69565 8 8.78261C7.91304 8.86957 7.82609 8.95652 7.73913 9.04348C7.73913 9.13043 7.73913 9.13043 7.73913 9.13043C8 9.56522 8.52174 10.3478 9.21739 10.9565C10.1739 11.8261 10.8696 12.087 11.2174 12.2609H11.3043C11.3913 12.2609 11.4783 12.3478 11.4783 12.2609C11.6522 12.087 11.8261 11.7391 12.087 11.4783L12.1739 11.3913C12.4348 11.0435 12.7826 10.9565 12.9565 10.9565C13.0435 10.9565 13.2174 10.9565 13.3043 11.0435C13.3913 11.0435 13.5652 11.1304 15.2174 12L15.3913 12.087C15.6522 12.1739 15.8261 12.2609 15.913 12.5217C16.2609 12.6957 16.1739 13.4783 16 14.087Z" fill="#1B245C"/>
</svg>
