<svg xmlns="http://www.w3.org/2000/svg" width="34" height="34" viewBox="0 0 34 34">
  <g id="Group_1423" data-name="Group 1423" transform="translate(-0.122)">
    <g id="Ellipse_216" data-name="Ellipse 216" transform="translate(0.122)" fill="#fff" stroke="#ff6e2e" stroke-width="1">
      <circle cx="17" cy="17" r="17" stroke="none"/>
      <circle cx="17" cy="17" r="16.5" fill="none"/>
    </g>
    <path id="Icon_ionic-logo-whatsapp" data-name="Icon ionic-logo-whatsapp" d="M12.276,2.25a9.632,9.632,0,0,0-9.669,9.594A9.495,9.495,0,0,0,4,16.8L2.25,21.945l5.353-1.7a9.685,9.685,0,0,0,14.342-8.4A9.632,9.632,0,0,0,12.276,2.25Zm4.808,13.238a2.5,2.5,0,0,1-1.71,1.1c-.453.024-.466.351-2.938-.722a10.088,10.088,0,0,1-4.076-3.854,4.742,4.742,0,0,1-.912-2.57,2.74,2.74,0,0,1,.941-2.01.947.947,0,0,1,.67-.282c.195,0,.321-.006.465,0s.36-.03.547.468.635,1.721.692,1.846a.448.448,0,0,1,0,.43,1.679,1.679,0,0,1-.262.4c-.129.138-.271.31-.387.415s-.262.245-.127.5A7.4,7.4,0,0,0,11.3,12.951a6.746,6.746,0,0,0,1.939,1.289c.242.132.387.117.537-.041s.644-.692.818-.931.337-.192.56-.1,1.414.728,1.656.86.4.2.462.3A2.03,2.03,0,0,1,17.084,15.488Z" transform="translate(4.75 4.75)" fill="#1b245c"/>
  </g>
</svg>
