<svg id="Twitter" xmlns="http://www.w3.org/2000/svg" width="31.131" height="31.131" viewBox="0 0 31.131 31.131">
  <circle id="Ellipse_222" data-name="Ellipse 222" cx="15.565" cy="15.565" r="15.565" transform="translate(0 0)" fill="#5a99ec"/>
  <g id="Group_1460" data-name="Group 1460" transform="translate(6.085 8.157)">
    <g id="Group_1459" data-name="Group 1459">
      <path id="Path_1831" data-name="Path 1831" d="M1013.552,259.693a11.68,11.68,0,0,0,11.76-11.76c0-.179,0-.357-.012-.534a8.411,8.411,0,0,0,2.062-2.14,8.239,8.239,0,0,1-2.374.651,4.149,4.149,0,0,0,1.818-2.286,8.284,8.284,0,0,1-2.625,1,4.137,4.137,0,0,0-7.044,3.769,11.733,11.733,0,0,1-8.519-4.318,4.136,4.136,0,0,0,1.279,5.518,4.1,4.1,0,0,1-1.872-.517c0,.017,0,.035,0,.053a4.135,4.135,0,0,0,3.315,4.052,4.129,4.129,0,0,1-1.866.071,4.138,4.138,0,0,0,3.861,2.871,8.293,8.293,0,0,1-5.133,1.769,8.4,8.4,0,0,1-.986-.057,11.7,11.7,0,0,0,6.336,1.857" transform="translate(-1007.216 -243.321)" fill="#fff"/>
    </g>
  </g>
</svg>
