<svg width="15" height="15" viewBox="0 0 15 15" fill="none" xmlns="http://www.w3.org/2000/svg">
<path d="M8.19434 14.625C9.69727 12.7441 13.125 8.18555 13.125 5.625C13.125 2.51953 10.6055 0 7.5 0C4.39453 0 1.875 2.51953 1.875 5.625C1.875 8.18555 5.30273 12.7441 6.80566 14.625C7.16602 15.0732 7.83398 15.0732 8.19434 14.625ZM7.5 3.75C7.99728 3.75 8.47419 3.94754 8.82583 4.29917C9.17746 4.6508 9.375 5.12772 9.375 5.625C9.375 6.12228 9.17746 6.59919 8.82583 6.95082C8.47419 7.30246 7.99728 7.5 7.5 7.5C7.00272 7.5 6.52581 7.30246 6.17417 6.95082C5.82254 6.59919 5.625 6.12228 5.625 5.625C5.625 5.12772 5.82254 4.6508 6.17417 4.29917C6.52581 3.94754 7.00272 3.75 7.5 3.75Z" fill="#FF6E2E"/>
</svg>
