<svg width="20" height="24" viewBox="0 0 20 24" fill="none" xmlns="http://www.w3.org/2000/svg">
<path d="M17.3713 16.7384L15.7367 14.8C15.5764 14.5846 15.4803 14.3384 15.4803 14.0615V10.0615C15.4803 7.56921 13.7495 5.35383 11.2495 4.67691V3.10768C11.2495 2.24614 10.5123 1.56921 9.64696 1.56921C8.78158 1.56921 8.0444 2.27691 8.0444 3.10768V4.64614C5.51234 5.35383 3.78158 7.56921 3.81363 10.0615V14.0615C3.81363 14.3384 3.71747 14.5846 3.55722 14.8L1.9226 16.7384C1.7944 16.8923 1.69824 17.1077 1.69824 17.3231V19.7538H17.6598V17.3231C17.5957 17.1077 17.4995 16.8923 17.3713 16.7384ZM8.97388 3.10768C8.97388 2.76921 9.26235 2.49229 9.61491 2.49229C9.96747 2.49229 10.2559 2.76921 10.2559 3.10768V4.49229C9.80722 4.43075 9.39055 4.43075 8.94183 4.49229V3.10768H8.97388ZM16.6341 18.8H2.59568V17.3231L4.23029 15.3846C4.55081 15.0154 4.71106 14.5538 4.71106 14.0615V10.0615C4.71106 7.47691 6.89055 5.35383 9.61491 5.35383C12.3393 5.35383 14.5188 7.44614 14.5188 10.0615V14.0615C14.5188 14.5538 14.679 15.0154 14.9995 15.3846L16.6341 17.3231V18.8Z" fill="#FF6E2E"/>
<path d="M8.97363 6.40002V7.3231C10.9288 7.3231 12.5313 8.86156 12.5313 10.7385H13.4929C13.4929 8.33849 11.4736 6.40002 8.97363 6.40002Z" fill="#FF6E2E"/>
<path d="M9.61453 21.5077C8.68505 21.5077 7.94787 20.8 7.94787 19.9077H6.98633C6.98633 21.2923 8.17223 22.4308 9.61453 22.4308C11.0568 22.4308 12.2427 21.2923 12.2427 19.9077H11.2812C11.2812 20.8 10.544 21.5077 9.61453 21.5077Z" fill="#FF6E2E"/>
</svg>
