<svg width="20" height="20" viewBox="0 0 20 20" fill="none" xmlns="http://www.w3.org/2000/svg">
<path d="M4.9375 12.5313C3.5625 12.5313 2.46875 11.4375 2.46875 10.0625C2.46875 8.68751 3.5625 7.59375 4.9375 7.59375C6.3125 7.59375 7.40626 8.68751 7.40626 10.0625C7.40626 11.4063 6.3125 12.5313 4.9375 12.5313ZM4.9375 8.50001C4.09375 8.50001 3.40625 9.18751 3.40625 10.0313C3.40625 10.875 4.09375 11.5625 4.9375 11.5625C5.78125 11.5625 6.46876 10.875 6.46876 10.0313C6.46876 9.21876 5.78125 8.50001 4.9375 8.50001Z" fill="#FF6E2E"/>
<path d="M14.9687 7.5C13.5937 7.5 12.5 6.40625 12.5 5.03125C12.5 3.65625 13.5937 2.5625 14.9687 2.5625C16.3437 2.5625 17.4375 3.65625 17.4375 5.03125C17.4375 6.40625 16.3125 7.5 14.9687 7.5ZM14.9687 3.5C14.125 3.5 13.4375 4.1875 13.4375 5.03125C13.4375 5.875 14.125 6.5625 14.9687 6.5625C15.8125 6.5625 16.5 5.875 16.5 5.03125C16.5 4.1875 15.8125 3.5 14.9687 3.5Z" fill="#FF6E2E"/>
<path d="M14.9687 17.5313C13.5937 17.5313 12.5 16.4375 12.5 15.0625C12.5 13.6875 13.5937 12.5938 14.9687 12.5938C16.3437 12.5938 17.4375 13.6875 17.4375 15.0625C17.4375 16.4375 16.3125 17.5313 14.9687 17.5313ZM14.9687 13.5312C14.125 13.5312 13.4375 14.2188 13.4375 15.0625C13.4375 15.9063 14.125 16.5938 14.9687 16.5938C15.8125 16.5938 16.5 15.9063 16.5 15.0625C16.5 14.2188 15.8125 13.5312 14.9687 13.5312Z" fill="#FF6E2E"/>
<path d="M12.9375 14.625L6.5 11.4062L6.93751 10.5L13.4063 13.7187L12.9375 14.625Z" fill="#FF6E2E"/>
<path d="M6.93751 9.59375L6.5 8.71875L12.9375 5.5L13.4063 6.375L6.93751 9.59375Z" fill="#FF6E2E"/>
</svg>
