<svg width="24" height="20" viewBox="0 0 24 20" fill="none" xmlns="http://www.w3.org/2000/svg">
<path d="M3.52819 13.8062C1.51728 13.8062 0 14.5492 0 15.5365V18.2696C0 19.2569 1.51728 20 3.52819 20C5.5391 20 7.05638 19.2569 7.05638 18.2696V15.5365C7.05638 14.5544 5.5391 13.8062 3.52819 13.8062ZM0.727462 16.399C1.31982 16.8199 2.34347 17.0901 3.52819 17.0901C4.71291 17.0901 5.73655 16.8199 6.32892 16.399V17.2928C5.92881 17.7189 4.88958 18.093 3.52819 18.093C2.1668 18.093 1.13276 17.7189 0.727462 17.2928V16.399ZM3.52819 14.5336C5.23772 14.5336 6.32892 15.126 6.32892 15.5365V15.921C5.92881 16.3471 4.88958 16.7212 3.52819 16.7212C2.1668 16.7212 1.13276 16.3471 0.727462 15.921V15.5365C0.727462 15.1312 1.81865 14.5336 3.52819 14.5336ZM3.52819 19.2777C1.81865 19.2777 0.727462 18.6853 0.727462 18.2748V17.7656C1.31982 18.1865 2.34347 18.4567 3.52819 18.4567C4.71291 18.4567 5.73655 18.1865 6.32892 17.7656V18.2748C6.32892 18.6801 5.23772 19.2777 3.52819 19.2777Z" fill="#FF6E2E"/>
<path d="M11.9715 11.073C9.96064 11.073 8.44336 11.816 8.44336 12.8033V18.2697C8.44336 19.2569 9.96064 20 11.9715 20C13.9825 20 15.4997 19.2569 15.4997 18.2697V12.8033C15.4997 11.816 13.9825 11.073 11.9715 11.073ZM14.7723 15.921C14.3722 16.3471 13.3329 16.7212 11.9715 16.7212C10.6102 16.7212 9.57612 16.3471 9.17082 15.921V15.0273C9.76318 15.4482 10.7868 15.7184 11.9715 15.7184C13.1563 15.7184 14.1799 15.4482 14.7723 15.0273V15.921ZM14.7723 14.5544C14.3722 14.9805 13.3329 15.3546 11.9715 15.3546C10.6102 15.3546 9.57612 14.9805 9.17082 14.5544V13.6607C9.76318 14.0816 10.7868 14.3518 11.9715 14.3518C13.1563 14.3518 14.1799 14.0816 14.7723 13.6607V14.5544ZM9.17082 16.3991C9.76318 16.8199 10.7868 17.0901 11.9715 17.0901C13.1563 17.0901 14.1799 16.8199 14.7723 16.3991V17.2928C14.3722 17.7189 13.3329 18.093 11.9715 18.093C10.6102 18.093 9.57612 17.7189 9.17082 17.2928V16.3991ZM11.9715 11.8005C13.6811 11.8005 14.7723 12.3928 14.7723 12.8033V13.1878C14.3722 13.6139 13.3329 13.988 11.9715 13.988C10.6102 13.988 9.57612 13.6139 9.17082 13.1878V12.8033C9.17082 12.398 10.262 11.8005 11.9715 11.8005ZM11.9715 19.2777C10.262 19.2777 9.17082 18.6854 9.17082 18.2749V17.7656C9.76318 18.1865 10.7868 18.4567 11.9715 18.4567C13.1563 18.4567 14.1799 18.1865 14.7723 17.7656V18.2749C14.7723 18.6802 13.6811 19.2777 11.9715 19.2777Z" fill="#FF6E2E"/>
<path d="M20.4149 8.33984C18.404 8.33984 16.8867 9.08289 16.8867 10.0702V18.2697C16.8867 19.257 18.404 20 20.4149 20C22.4258 20 23.9431 19.257 23.9431 18.2697V10.0702C23.9431 9.08289 22.4258 8.33984 20.4149 8.33984ZM23.2156 15.921C22.8155 16.3471 21.7763 16.7212 20.4149 16.7212C19.0535 16.7212 18.0195 16.3471 17.6142 15.921V15.0273C18.2065 15.4482 19.2302 15.7184 20.4149 15.7184C21.5996 15.7184 22.6233 15.4482 23.2156 15.0273V15.921ZM23.2156 14.5544C22.8155 14.9805 21.7763 15.3547 20.4149 15.3547C19.0535 15.3547 18.0195 14.9805 17.6142 14.5544V13.6607C18.2065 14.0816 19.2302 14.3518 20.4149 14.3518C21.5996 14.3518 22.6233 14.0816 23.2156 13.6607V14.5544ZM23.2156 13.1879C22.8155 13.6139 21.7763 13.9881 20.4149 13.9881C19.0535 13.9881 18.0195 13.6139 17.6142 13.1879V12.2941C18.2065 12.715 19.2302 12.9852 20.4149 12.9852C21.5996 12.9852 22.6233 12.715 23.2156 12.2941V13.1879ZM23.2156 11.8213C22.8155 12.2474 21.7763 12.6215 20.4149 12.6215C19.0535 12.6215 18.0195 12.2474 17.6142 11.8213V10.9275C18.2065 11.3484 19.2302 11.6186 20.4149 11.6186C21.5996 11.6186 22.6233 11.3484 23.2156 10.9275V11.8213ZM17.6142 16.3991C18.2065 16.82 19.2302 17.0902 20.4149 17.0902C21.5996 17.0902 22.6233 16.82 23.2156 16.3991V17.2928C22.8155 17.7189 21.7763 18.093 20.4149 18.093C19.0535 18.093 18.0195 17.7189 17.6142 17.2928V16.3991ZM20.4149 9.06731C22.1244 9.06731 23.2156 9.65967 23.2156 10.0702V10.4547C22.8155 10.8808 21.7763 11.2549 20.4149 11.2549C19.0535 11.2549 18.0195 10.8808 17.6142 10.4547V10.0702C17.6142 9.66486 18.7054 9.06731 20.4149 9.06731ZM20.4149 19.2778C18.7054 19.2778 17.6142 18.6854 17.6142 18.2749V17.7657C18.2065 18.1866 19.2302 18.4568 20.4149 18.4568C21.5996 18.4568 22.6233 18.1866 23.2156 17.7657V18.2749C23.2156 18.6802 22.1244 19.2778 20.4149 19.2778Z" fill="#FF6E2E"/>
<path d="M3.52811 11.4108C4.26596 11.4108 4.86872 10.808 4.86872 10.0701C4.86872 10.0338 4.86872 9.9974 4.86352 9.96623L10.8859 7.74227C11.1301 8.07482 11.525 8.29306 11.9719 8.29306C12.7097 8.29306 13.3125 7.69031 13.3125 6.95246C13.3125 6.80696 13.2917 6.67186 13.2501 6.54196L19.5427 2.35905C19.7765 2.5617 20.0831 2.68122 20.4156 2.68122C21.1535 2.68122 21.7562 2.07846 21.7562 1.34061C21.7562 0.602754 21.1535 0 20.4156 0C19.6778 0 19.075 0.602754 19.075 1.34061C19.075 1.4861 19.0958 1.6212 19.1374 1.7511L12.8448 5.93401C12.611 5.73136 12.3044 5.61185 11.9719 5.61185C11.234 5.61185 10.6313 6.2146 10.6313 6.95246C10.6313 6.98883 10.6313 7.0252 10.6364 7.05638L4.6141 9.28033C4.36989 8.94778 3.97498 8.72954 3.52811 8.72954C2.79025 8.72954 2.1875 9.33229 2.1875 10.0701C2.1875 10.808 2.79025 11.4108 3.52811 11.4108ZM20.4156 0.727462C20.7534 0.727462 21.0288 1.00286 21.0288 1.34061C21.0288 1.67836 20.7534 1.95375 20.4156 1.95375C20.0779 1.95375 19.8025 1.67836 19.8025 1.34061C19.8025 1.00286 20.0779 0.727462 20.4156 0.727462ZM11.9719 6.34451C12.3096 6.34451 12.585 6.6199 12.585 6.95765C12.585 7.2954 12.3096 7.5708 11.9719 7.5708C11.7121 7.5708 11.4886 7.40452 11.4003 7.17589V7.17069C11.4003 7.17069 11.4003 7.17069 11.4003 7.1655C11.3743 7.09795 11.3639 7.0304 11.3639 6.95765C11.3587 6.6199 11.6341 6.34451 11.9719 6.34451ZM3.52811 9.457C3.86586 9.457 4.14125 9.7324 4.14125 10.0701C4.14125 10.4079 3.86586 10.6833 3.52811 10.6833C3.19036 10.6833 2.91496 10.4079 2.91496 10.0701C2.91496 9.7324 3.19036 9.457 3.52811 9.457Z" fill="#FF6E2E"/>
</svg>
