<svg xmlns="http://www.w3.org/2000/svg" width="122.332" height="115.07" viewBox="0 0 122.332 115.07">
  <g id="Image" transform="translate(-47.306 -107.272)">
    <path id="Path_310" data-name="Path 310" d="M14.194,20.551c3.4-3.4,26.895-28.31,47-18.119s29.726,22.365,40.767,45.3c3.554,9.106,5.945,35.954-26.895,57.187S17.874,93.875,14.194,89.346-15.816,57.921,14.194,20.551Z" transform="matrix(-0.105, 0.995, -0.995, -0.105, 169.638, 118.988)" fill="#fafdff"/>
    <ellipse id="Ellipse_21" data-name="Ellipse 21" cx="42.85" cy="42.85" rx="42.85" ry="42.85" transform="translate(59.296 200.104) rotate(-80.592)" fill="#f0f8ff"/>
    <g id="picture" transform="translate(70.761 82.378)">
      <path id="Path_396" data-name="Path 396" d="M76.479,112.243H0V51H76.479Z" fill="#e6f9ff"/>
      <path id="Path_397" data-name="Path 397" d="M294.24,112.243H256V51h38.24Z" transform="translate(-217.76)" fill="#ccefff"/>
      <path id="Path_400" data-name="Path 400" d="M0,0H67.844V44.967H0Z" transform="translate(4.317 55.194)" fill="#ff6e2e"/>
      <path id="Path_401" data-name="Path 401" d="M0,0H33.922V44.967H0Z" transform="translate(38.239 55.194)" fill="#d4480b"/>
      <ellipse id="Ellipse_72" data-name="Ellipse 72" cx="7.5" cy="6.5" rx="7.5" ry="6.5" transform="translate(10.239 62.622)" fill="#ffdc40"/>
      <path id="Path_398" data-name="Path 398" d="M116.049,178.37V155.036L103.8,142.787,81.917,164.67,73.7,156.455,51.787,178.37Z" transform="translate(-44.051 -78.076)" fill="#66e26f"/>
      <path id="Path_399" data-name="Path 399" d="M277.51,142.787,256,164.3V178.37h33.758V155.036Z" transform="translate(-217.76 -78.076)" fill="#48cc4e"/>
    </g>
  </g>
</svg>
