<svg width="32" height="32" viewBox="0 0 32 32" fill="none" xmlns="http://www.w3.org/2000/svg">
<path fill-rule="evenodd" clip-rule="evenodd" d="M28.666 27.3333H3.33268C1.86002 27.3333 0.666016 26.1393 0.666016 24.6666V9.99996C0.666016 8.52729 1.86002 7.33329 3.33268 7.33329H3.99935C3.99935 6.59729 4.59668 5.99996 5.33268 5.99996H6.66602C7.40202 5.99996 7.99935 6.59729 7.99935 7.33329H9.33268C9.33268 7.33329 10.0827 7.24996 10.666 6.66663L11.9993 5.33329C11.9993 5.33329 12.52 4.66663 13.3327 4.66663H18.666C19.5407 4.66663 19.9993 5.33329 19.9993 5.33329L21.3327 6.66663C21.916 7.24996 22.666 7.33329 22.666 7.33329H28.666C30.1387 7.33329 31.3327 8.52729 31.3327 9.99996V24.6666C31.3327 26.1393 30.1387 27.3333 28.666 27.3333ZM29.9993 9.99996C29.9993 9.26396 29.402 8.66663 28.666 8.66663L22.5187 8.65796C22.3153 8.63596 21.2593 8.47863 20.39 7.60929L18.97 6.18929L18.9007 6.08863C18.9007 6.08863 18.7967 5.99996 18.666 5.99996H13.3327C13.2307 5.99996 13.0827 6.11863 13.05 6.15396L13 6.21796L11.6087 7.60863C10.7387 8.47863 9.68268 8.63529 9.48001 8.65729L6.71268 8.66129C6.69668 8.66263 6.68135 8.66663 6.66602 8.66663H5.33268C5.32335 8.66663 5.31535 8.66396 5.30602 8.66396L3.33268 8.66663C2.59668 8.66663 1.99935 9.26396 1.99935 9.99996V24.6666C1.99935 25.4026 2.59668 26 3.33268 26H28.666C29.402 26 29.9993 25.4026 29.9993 24.6666V9.99996ZM15.9993 24.6666C11.9493 24.6666 8.66602 21.3833 8.66602 17.3333C8.66602 13.2833 11.9493 9.99996 15.9993 9.99996C20.0493 9.99996 23.3327 13.2833 23.3327 17.3333C23.3327 21.3833 20.0493 24.6666 15.9993 24.6666ZM15.9993 11.3333C12.6853 11.3333 9.99935 14.0193 9.99935 17.3333C9.99935 20.6473 12.6853 23.3333 15.9993 23.3333C19.3133 23.3333 21.9993 20.6473 21.9993 17.3333C21.9993 14.0193 19.3133 11.3333 15.9993 11.3333ZM15.9993 20.6666C14.158 20.6666 12.666 19.1746 12.666 17.3333C12.666 15.492 14.158 14 15.9993 14C17.8407 14 19.3327 15.492 19.3327 17.3333C19.3327 19.1746 17.8407 20.6666 15.9993 20.6666ZM15.9993 15.3333C14.8953 15.3333 13.9993 16.2293 13.9993 17.3333C13.9993 18.438 14.8953 19.3333 15.9993 19.3333C17.104 19.3333 17.9993 18.438 17.9993 17.3333C17.9993 16.2293 17.104 15.3333 15.9993 15.3333ZM6.66602 12.6666H3.99935C3.63068 12.6666 3.33268 12.3686 3.33268 12V10.6666C3.33268 10.2986 3.63068 9.99996 3.99935 9.99996H6.66602C7.03468 9.99996 7.33268 10.2986 7.33268 10.6666V12C7.33268 12.3686 7.03468 12.6666 6.66602 12.6666Z" fill="#FF6E2E"/>
</svg>
