<svg width="20" height="20" viewBox="0 0 20 20" fill="none" xmlns="http://www.w3.org/2000/svg">
<path d="M10 16.5312L9.75 16.3125C4.0625 11.6875 2.53125 10.0625 2.53125 7.40625C2.53125 5.21875 4.3125 3.46875 6.46875 3.46875C8.28125 3.46875 9.3125 4.5 10 5.28125C10.6875 4.5 11.7187 3.46875 13.5312 3.46875C15.7187 3.46875 17.4687 5.25 17.4687 7.40625C17.4687 10.0625 15.9375 11.6875 10.25 16.3125L10 16.5312ZM6.46875 4.28125C4.75 4.28125 3.34375 5.6875 3.34375 7.40625C3.34375 9.6875 4.78125 11.1875 10 15.4687C15.2187 11.1875 16.6562 9.6875 16.6562 7.40625C16.6562 5.6875 15.25 4.28125 13.5312 4.28125C11.9687 4.28125 11.125 5.21875 10.4687 5.96875L10 6.5L9.53125 5.96875C8.875 5.21875 8.03125 4.28125 6.46875 4.28125Z" fill="#FF6E2E"/>
</svg>
