<svg width="12" height="20" viewBox="0 0 12 20" fill="none" xmlns="http://www.w3.org/2000/svg">
<path d="M0.375 5.625C0.375 4.13316 0.967632 2.70242 2.02252 1.64752C3.07742 0.592632 4.50816 0 6 0C7.49184 0 8.92258 0.592632 9.97748 1.64752C11.0324 2.70242 11.625 4.13316 11.625 5.625C11.625 7.11684 11.0324 8.54758 9.97748 9.60248C8.92258 10.6574 7.49184 11.25 6 11.25C4.50816 11.25 3.07742 10.6574 2.02252 9.60248C0.967632 8.54758 0.375 7.11684 0.375 5.625ZM6 3.125C6.34375 3.125 6.625 2.84375 6.625 2.5C6.625 2.15625 6.34375 1.875 6 1.875C3.92969 1.875 2.25 3.55469 2.25 5.625C2.25 5.96875 2.53125 6.25 2.875 6.25C3.21875 6.25 3.5 5.96875 3.5 5.625C3.5 4.24609 4.62109 3.125 6 3.125ZM4.75 18.75V12.3867C5.15625 12.4609 5.57422 12.5 6 12.5C6.42578 12.5 6.84375 12.4609 7.25 12.3867V18.75C7.25 19.4414 6.69141 20 6 20C5.30859 20 4.75 19.4414 4.75 18.75Z" fill="#FF6E2E"/>
</svg>
