<svg width="15" height="15" viewBox="0 0 15 15" fill="none" xmlns="http://www.w3.org/2000/svg">
<path d="M8.4375 2.34375C8.4375 1.8252 8.01855 1.40625 7.5 1.40625C6.98145 1.40625 6.5625 1.8252 6.5625 2.34375V6.5625H2.34375C1.8252 6.5625 1.40625 6.98145 1.40625 7.5C1.40625 8.01855 1.8252 8.4375 2.34375 8.4375H6.5625V12.6562C6.5625 13.1748 6.98145 13.5938 7.5 13.5938C8.01855 13.5938 8.4375 13.1748 8.4375 12.6562V8.4375H12.6562C13.1748 8.4375 13.5938 8.01855 13.5938 7.5C13.5938 6.98145 13.1748 6.5625 12.6562 6.5625H8.4375V2.34375Z" fill="#1B245C"/>
</svg>
