<svg id="Facebook" xmlns="http://www.w3.org/2000/svg" width="31.131" height="31.131" viewBox="0 0 31.131 31.131">
  <path id="Path_1838" data-name="Path 1838" d="M115.3,223.511a15.565,15.565,0,1,0-18,15.376V228.011H93.351v-4.5H97.3v-3.429c0-3.9,2.324-6.056,5.879-6.056a23.94,23.94,0,0,1,3.484.3v3.831H104.7a2.25,2.25,0,0,0-2.537,2.431v2.92h4.317l-.69,4.5h-3.627v10.877A15.569,15.569,0,0,0,115.3,223.511Z" transform="translate(-84.17 -207.946)" fill="#4676ed"/>
  <path id="Path_1839" data-name="Path 1839" d="M136.427,248.3l.69-4.5H132.8v-2.92a2.25,2.25,0,0,1,2.537-2.431H137.3v-3.831a23.942,23.942,0,0,0-3.484-.3c-3.556,0-5.879,2.155-5.879,6.056V243.8h-3.952v4.5h3.952v10.877a15.733,15.733,0,0,0,4.864,0V248.3Z" transform="translate(-114.803 -228.233)" fill="#fff"/>
</svg>
