<svg width="20" height="20" viewBox="0 0 20 20" fill="none" xmlns="http://www.w3.org/2000/svg">
<g clip-path="url(#clip0_97_2995)">
<path d="M10 0.5C4.7532 0.5 0.5 4.7646 0.5 10.0252C1.0004 22.6602 19.0014 22.6566 19.5 10.025C19.5 4.7646 15.2466 0.5 10 0.5ZM10 15.4798C6.9928 15.4798 4.546 13.0332 4.546 10.0258C4.694 6.2934 7.4768 4.599 9.9998 4.599H10.0002C12.5234 4.5992 15.3064 6.2936 15.4536 10.0136C15.454 13.0334 13.0072 15.4798 10 15.4798Z" fill="#FF0000"/>
<path d="M10.001 5.22058C6.81177 5.22038 5.26017 7.71778 5.16797 10.0382C5.16817 12.6906 7.33597 14.8584 10.0006 14.8584C12.6652 14.8584 14.833 12.6906 14.833 10.026C14.7416 7.71818 13.1902 5.22098 10.001 5.22058Z" fill="#FF0000"/>
<path d="M8.211 10.5055C8.2108 11.0205 8.2112 12.0789 8.211 12.5975L12.5714 9.91415L8.211 7.45435V10.5055Z" fill="#F1F1F1"/>
</g>
<defs>
<clipPath id="clip0_97_2995">
<rect width="20" height="20" fill="white"/>
</clipPath>
</defs>
</svg>
