<svg width="20" height="20" viewBox="0 0 20 20" fill="none" xmlns="http://www.w3.org/2000/svg">
<path d="M9.375 0H14.2227C14.7188 0 15.1953 0.199219 15.5469 0.550781L18.1992 3.20312C18.5508 3.55469 18.75 4.03125 18.75 4.52734V13.125C18.75 14.1602 17.9102 15 16.875 15H9.375C8.33984 15 7.5 14.1602 7.5 13.125V1.875C7.5 0.839844 8.33984 0 9.375 0ZM3.125 5H6.25V7.5H3.75V17.5H11.25V16.25H13.75V18.125C13.75 19.1602 12.9102 20 11.875 20H3.125C2.08984 20 1.25 19.1602 1.25 18.125V6.875C1.25 5.83984 2.08984 5 3.125 5Z" fill="#FF6E2E"/>
</svg>
