<svg id="Snapchat" xmlns="http://www.w3.org/2000/svg" width="31.131" height="31.131" viewBox="0 0 31.131 31.131">
  <circle id="Ellipse_225" data-name="Ellipse 225" cx="15.565" cy="15.565" r="15.565" transform="translate(0 0)" fill="#fefb00"/>
  <g id="Group_1467" data-name="Group 1467" transform="translate(4.422 4.571)">
    <g id="Group_1466" data-name="Group 1466">
      <path id="Path_1836" data-name="Path 1836" d="M556.263,628.23c0-.058,0-.1,0-.144,0-.277,0-.554.01-.831a8.965,8.965,0,0,1,.226-1.79,5.543,5.543,0,0,1,1.029-2.12,6.313,6.313,0,0,1,3.4-2.228,7.345,7.345,0,0,1,2.223-.239,6.975,6.975,0,0,1,2.33.473A6.206,6.206,0,0,1,568.5,623.8a5.573,5.573,0,0,1,.787,2.054,10.741,10.741,0,0,1,.152,1.858c0,.165,0,.33,0,.488.034.034.061.011.087.006a2.84,2.84,0,0,1,.71-.064,2.035,2.035,0,0,1,.892.243,1.819,1.819,0,0,1,.927,1.231,1.948,1.948,0,0,1-.406,1.723,3.092,3.092,0,0,1-.7.633c-.217.147-.438.289-.657.433l-.268.176c-.028.019-.057.037-.084.058a.291.291,0,0,0-.119.37,1.186,1.186,0,0,0,.07.16,5.427,5.427,0,0,0,1.141,1.537,7.258,7.258,0,0,0,1.712,1.2c.168.087.336.174.5.266a1.75,1.75,0,0,1,.4.3,1.329,1.329,0,0,1,.164,1.7,2.09,2.09,0,0,1-.676.653,5.4,5.4,0,0,1-.688.349,6.551,6.551,0,0,1-.755.265c-.088.026-.176.056-.262.089a.374.374,0,0,0-.215.207c-.026.058-.05.116-.073.174a1.63,1.63,0,0,1-1.215,1.048,3.712,3.712,0,0,1-.664.082c-.247.013-.5.019-.743.034a4.839,4.839,0,0,0-1.158.211,2.314,2.314,0,0,0-.464.209c-.2.115-.392.233-.587.352a8.216,8.216,0,0,1-1.055.558,5.853,5.853,0,0,1-1.6.425,6.684,6.684,0,0,1-1.455.015,5.826,5.826,0,0,1-2.111-.625c-.272-.141-.535-.3-.8-.457-.112-.069-.225-.135-.336-.2a3.122,3.122,0,0,0-1.072-.4,7.2,7.2,0,0,0-1.16-.112,6.043,6.043,0,0,1-.77-.061,1.951,1.951,0,0,1-.554-.172,1.6,1.6,0,0,1-.782-.83c-.03-.071-.058-.144-.086-.217a.413.413,0,0,0-.263-.255c-.078-.026-.157-.052-.236-.074a6.181,6.181,0,0,1-1.292-.527,2.313,2.313,0,0,1-.707-.578,1.509,1.509,0,0,1-.3-.577,1.3,1.3,0,0,1,.3-1.234,1.609,1.609,0,0,1,.36-.3,4.782,4.782,0,0,1,.435-.237,7.671,7.671,0,0,0,1.495-.957,5.708,5.708,0,0,0,1.352-1.572c.063-.109.117-.224.175-.336a.637.637,0,0,0,.063-.208.241.241,0,0,0-.062-.2.817.817,0,0,0-.17-.136q-.439-.287-.878-.576a3.5,3.5,0,0,1-.523-.419,2.256,2.256,0,0,1-.557-.828,1.952,1.952,0,0,1,.446-2.062,1.913,1.913,0,0,1,1.04-.518,2.389,2.389,0,0,1,.927.028Z" transform="translate(-551.676 -620.873)"/>
      <path id="Path_1837" data-name="Path 1837" d="M572.551,632.4c-.005.428-.026.855-.057,1.282-.006.073-.008.146-.009.218,0,.159.088.223.246.208a.7.7,0,0,0,.17-.039c.156-.055.31-.112.464-.171a6.192,6.192,0,0,1,.788-.259,1.2,1.2,0,0,1,.548-.022.661.661,0,0,1,.475.913.955.955,0,0,1-.181.28,1.954,1.954,0,0,1-.364.313c-.157.106-.316.209-.474.314-.264.174-.529.346-.791.522q-.163.11-.319.231a1.2,1.2,0,0,0-.159.149.512.512,0,0,0-.135.388,1.938,1.938,0,0,0,.073.415,5.147,5.147,0,0,0,.549,1.234A7.056,7.056,0,0,0,575,640.225a9.239,9.239,0,0,0,1.783,1.126c.056.028.112.058.166.09a.34.34,0,0,1,.107.1.17.17,0,0,1,.012.192.478.478,0,0,1-.124.141,1.434,1.434,0,0,1-.233.149,5.19,5.19,0,0,1-1.137.441c-.169.045-.337.093-.5.143a1.915,1.915,0,0,0-.335.142.6.6,0,0,0-.324.442c-.021.109-.034.221-.054.33a.434.434,0,0,1-.422.426,2.476,2.476,0,0,1-.29.032c-.243.013-.486.02-.729.033a6.317,6.317,0,0,0-1.616.288,3.416,3.416,0,0,0-.637.283c-.215.123-.427.252-.639.38a6.822,6.822,0,0,1-1.047.54,4.637,4.637,0,0,1-1.272.294,5.486,5.486,0,0,1-1.107-.013,4.519,4.519,0,0,1-1.566-.475c-.229-.117-.451-.249-.67-.383q-.243-.148-.487-.293a4.125,4.125,0,0,0-1.247-.475,6.9,6.9,0,0,0-1.213-.151c-.214-.008-.427-.017-.641-.03a1.836,1.836,0,0,1-.36-.054.387.387,0,0,1-.306-.315c-.019-.1-.034-.191-.05-.287,0-.019,0-.038-.007-.058a.661.661,0,0,0-.4-.549,3.141,3.141,0,0,0-.451-.163c-.267-.074-.535-.139-.8-.233a4.706,4.706,0,0,1-.665-.3c-.064-.035-.126-.073-.186-.114a.728.728,0,0,1-.112-.093.21.21,0,0,1,.029-.357,1.281,1.281,0,0,1,.228-.128,9.2,9.2,0,0,0,1.573-.97,7.156,7.156,0,0,0,1.762-1.925,5.221,5.221,0,0,0,.582-1.283,1.867,1.867,0,0,0,.077-.444.52.52,0,0,0-.144-.385,1.356,1.356,0,0,0-.2-.173c-.2-.152-.413-.291-.624-.43l-.806-.525a2.666,2.666,0,0,1-.381-.294,1.283,1.283,0,0,1-.221-.269.688.688,0,0,1-.04-.656.584.584,0,0,1,.338-.324.99.99,0,0,1,.531-.044,3.51,3.51,0,0,1,.616.173c.205.074.408.154.613.231a1.457,1.457,0,0,0,.292.087.407.407,0,0,0,.072.01c.118,0,.215-.042.214-.2,0-.131-.007-.263-.016-.393a19.648,19.648,0,0,1-.038-2.128,7.4,7.4,0,0,1,.166-1.343,4.346,4.346,0,0,1,.778-1.678,5.055,5.055,0,0,1,2.749-1.834,6.094,6.094,0,0,1,1.861-.208,5.8,5.8,0,0,1,1.933.386,4.917,4.917,0,0,1,1.593.978,4.521,4.521,0,0,1,1.28,1.952,5.8,5.8,0,0,1,.224,1.068A13.049,13.049,0,0,1,572.551,632.4Z" transform="translate(-556.047 -625.065)" fill="#fff"/>
    </g>
  </g>
</svg>
