<svg width="23" height="20" viewBox="0 0 23 20" fill="none" xmlns="http://www.w3.org/2000/svg">
<g clip-path="url(#clip0_142_3531)">
<path d="M6.875 16.25C5.83945 16.25 5.03516 17.0895 5.03516 18.125C5.03516 19.1605 5.83984 20 6.875 20C7.91016 20 8.71484 19.1605 8.71484 18.125C8.71484 17.0895 7.91016 16.25 6.875 16.25ZM22.2461 1.74727C22.0078 1.43125 21.6445 1.25 21.2148 1.25H4.73047L4.67188 0.762109C4.58594 0.319961 4.19922 0 3.75 0H0.902344C0.419922 0 0 0.419922 0 0.902344C0 1.38477 0.419922 1.875 0.902344 1.875H2.93906L5.29375 14.2383C5.41406 14.6797 5.80078 15 6.25 15H19.0625C19.5801 15 20 14.5801 20 14.0977C20 13.543 19.582 13.125 19.0625 13.125H7.02734L6.66797 11.25H19.1055C19.6637 11.25 20.1539 10.8801 20.3074 10.3434L22.4504 2.87852C22.5586 2.46289 22.4844 2.06367 22.2461 1.74727ZM16.25 6.25C16.25 6.6918 15.8884 7.05352 15.4465 7.05352H13.9285V8.57109C13.9297 9.01172 13.5664 9.375 13.125 9.375C12.6836 9.375 12.3215 9.01336 12.3215 8.57148V7.05469H10.8047C10.3633 7.05469 10 6.69141 10 6.25C10 5.80859 10.3616 5.44648 10.8035 5.44648H12.3215V3.92969C12.3215 3.48789 12.6831 3.12617 13.125 3.12617C13.5669 3.12617 13.9285 3.48773 13.9285 3.92969V5.44727H15.4465C15.8867 5.44531 16.25 5.80859 16.25 6.25ZM18.0898 16.25C17.0543 16.25 16.25 17.0895 16.25 18.125C16.25 19.1605 17.0895 20 18.0898 20C19.0902 20 19.9297 19.1605 19.9297 18.125C19.9297 17.0895 19.1602 16.25 18.0898 16.25Z" fill="#FF6E2E"/>
</g>
<defs>
<clipPath id="clip0_142_3531">
<rect width="22.5" height="20" fill="white"/>
</clipPath>
</defs>
</svg>
