<svg width="30" height="30" viewBox="0 0 30 30" fill="none" xmlns="http://www.w3.org/2000/svg">
<g clip-path="url(#clip0_142_3642)">
<path d="M21 13H19.4C19.3993 12.3637 19.1462 11.7537 18.6963 11.3037C18.2463 10.8538 17.6363 10.6007 17 10.6V9C18.0605 9.00121 19.0772 9.42302 19.8271 10.1729C20.577 10.9228 20.9988 11.9395 21 13Z" fill="#1B245C"/>
<path d="M24 13H22.4444C22.4428 11.5565 21.8687 10.1727 20.848 9.15197C19.8273 8.13129 18.4435 7.55716 17 7.55556V6C18.8559 6.00206 20.6352 6.74022 21.9475 8.05253C23.2598 9.36483 23.9979 11.1441 24 13Z" fill="#1B245C"/>
<path d="M18.3332 19.2177L20.0563 17.4946C20.2869 17.2639 20.5801 17.1059 20.8997 17.0403C21.2192 16.9746 21.551 17.0042 21.8539 17.1253L23.9524 17.9648C24.2618 18.0886 24.5269 18.3022 24.7136 18.5781C24.9004 18.8541 25.0001 19.1796 25 19.5128V23.3293C25.0005 23.5562 24.9547 23.7807 24.8655 23.9892C24.7762 24.1977 24.6453 24.3858 24.4808 24.542C24.3163 24.6982 24.1216 24.8191 23.9088 24.8975C23.6959 24.9758 23.4693 25.0098 23.2428 24.9975C8.53333 24.0818 5.56273 11.6244 5.01079 6.85231C4.98409 6.61903 5.00708 6.38275 5.07825 6.15899C5.14942 5.93524 5.26717 5.7291 5.42373 5.55412C5.5803 5.37914 5.77214 5.2393 5.98664 5.1438C6.20113 5.04829 6.43342 4.99929 6.66821 5.00001H10.4166C10.7497 5 11.0752 5.09981 11.351 5.28657C11.6268 5.47332 11.8404 5.73845 11.9641 6.04774L12.8036 8.14628C12.9247 8.44916 12.9542 8.78092 12.8886 9.10044C12.823 9.41996 12.665 9.7132 12.4343 9.94381L10.7112 11.667C10.7112 11.667 11.6664 18.3844 18.3332 19.2177Z" fill="#1B245C"/>
</g>
<defs>
<clipPath id="clip0_142_3642">
<rect width="30" height="30" fill="white"/>
</clipPath>
</defs>
</svg>
