<svg xmlns="http://www.w3.org/2000/svg" width="34" height="34" viewBox="0 0 34 34">
  <g id="Group_1422" data-name="Group 1422" transform="translate(-0.284)">
    <g id="Ellipse_218" data-name="Ellipse 218" transform="translate(0.284)" fill="#fff" stroke="#ff6e2e" stroke-width="1">
      <circle cx="17" cy="17" r="17" stroke="none"/>
      <circle cx="17" cy="17" r="16.5" fill="none"/>
    </g>
    <g id="world-wide-web" transform="translate(6.371 6.087)">
      <path id="Path_386" data-name="Path 386" d="M20.031,4.621A10.968,10.968,0,0,0,11.156,0,10.961,10.961,0,0,0,1.1,6.808l-.217.448A10.713,10.713,0,0,0,2.281,17.2a10.968,10.968,0,0,0,8.875,4.621,11,11,0,0,0,10-6.654l.192-.384A10.732,10.732,0,0,0,20.031,4.621ZM3.33,16.463a9.774,9.774,0,0,1-1.189-8.9l.166-.345a9.746,9.746,0,0,1,5.55-5.324,14.347,14.347,0,0,0-2.366,7.23.379.379,0,0,0-.026.128c-.332,4.284.639,8.419,2.468,10.734A9.761,9.761,0,0,1,3.33,16.463Zm7.187,3.969A3.457,3.457,0,0,1,9.2,19.494c-1.79-1.931-2.775-6.01-2.455-10.141V9.237c0-.038.013-.09.013-.128.371-3.977,1.931-7.114,3.76-7.716Zm1.279-.013V1.394c1.969.652,3.619,4.276,3.811,8.6.179,3.99-.818,7.737-2.545,9.553A3.237,3.237,0,0,1,11.8,20.419Zm8.376-6.155a10.394,10.394,0,0,1-5.793,5.708c1.714-2.161,2.685-6.015,2.506-10.03a14.516,14.516,0,0,0-2.506-8.1,9.7,9.7,0,0,1,5.793,12.422Z" transform="translate(-0.243)" fill="#1b245c"/>
      <path id="Path_388" data-name="Path 388" d="M19.864,151H1.961A1.952,1.952,0,0,0,0,152.918v5.115a1.952,1.952,0,0,0,1.961,1.918h17.9a1.952,1.952,0,0,0,1.961-1.918v-5.115A1.952,1.952,0,0,0,19.864,151Z" transform="translate(0 -144.563)" fill="#fff" stroke="#1b245c" stroke-width="1"/>
      <path id="Path_390" data-name="Path 390" d="M187.312,211.9l-1.279,2.558a.641.641,0,0,1-1.151,0l-.7-1.407-.7,1.407a.671.671,0,0,1-1.151,0l-1.279-2.558a.641.641,0,0,1,1.151-.563l.7,1.407.7-1.407a.664.664,0,0,1,1.151,0l.7,1.407.7-1.407a.641.641,0,0,1,1.151.563Z" transform="translate(-173.266 -201.988)" fill="#1b245c"/>
      <path id="Path_391" data-name="Path 391" d="M335.037,214.847a.64.64,0,0,1-.572-.353l-.707-1.414-.707,1.414a.666.666,0,0,1-1.144,0l-1.225-2.451a.633.633,0,0,1,.438-1.028.7.7,0,0,1,.652.35l.707,1.414.707-1.414a.666.666,0,0,1,1.144,0l.707,1.414.707-1.414a.639.639,0,0,1,1.144.572l-1.279,2.558A.64.64,0,0,1,335.037,214.847Z" transform="translate(-316.452 -202.016)" fill="#1b245c"/>
      <path id="Path_392" data-name="Path 392" d="M36.791,211.012a.669.669,0,0,0-.613.352l-.707,1.414-.707-1.414a.648.648,0,0,0-1.144,0l-.707,1.414-.707-1.414a.639.639,0,0,0-1.144.572l1.279,2.558a.64.64,0,0,0,1.144,0l.707-1.414.707,1.414a.64.64,0,0,0,1.144,0l1.2-2.409a.647.647,0,0,0-.456-1.073Z" transform="translate(-29.673 -202.016)" fill="#1b245c"/>
      <path id="Path_393" data-name="Path 393" d="M259.133,211.9l-1.279,2.558a.641.641,0,0,1-1.151,0l-.7-1.407v-2.046a.645.645,0,0,1,.575.332l.7,1.407.7-1.407a.641.641,0,0,1,1.151.563Z" transform="translate(-245.087 -201.988)" fill="#1b245c"/>
    </g>
  </g>
</svg>
