<svg width="30" height="30" viewBox="0 0 30 30" fill="none" xmlns="http://www.w3.org/2000/svg">
<path d="M18.1465 24.7618C19.5073 24.3218 20.7612 23.6024 21.8277 22.6496C22.8943 21.6968 23.7499 20.5316 24.3398 19.2288H21.0832C20.5131 21.6118 19.4713 23.56 18.1465 24.7618Z" fill="#1B245C"/>
<path d="M15.8203 19.2288V24.2942C17.3543 23.7733 18.675 21.8333 19.3764 19.2288H15.8203Z" fill="#1B245C"/>
<path d="M14.1793 24.2942V19.2288H10.6191C11.3205 21.8333 12.6412 23.7733 14.1793 24.2942Z" fill="#1B245C"/>
<path d="M8.9168 19.2288H5.66016C6.24971 20.5325 7.10574 21.6984 8.17313 22.6514C9.24052 23.6043 10.4956 24.3232 11.8577 24.7618C10.5246 23.5641 9.48281 21.6159 8.9168 19.2288Z" fill="#1B245C"/>
<path d="M24.9184 12.3955H21.3828C21.5023 13.2585 21.5626 14.1287 21.5633 15C21.564 15.8657 21.505 16.7305 21.3869 17.5881H24.9225C25.3668 15.8856 25.3654 14.0973 24.9184 12.3955Z" fill="#1B245C"/>
<path d="M19.9219 15C19.9207 14.128 19.8535 13.2574 19.7209 12.3955H15.8203V17.5881H19.7209C19.8535 16.7318 19.9207 15.8665 19.9219 15Z" fill="#1B245C"/>
<path d="M10.0781 15C10.078 15.8664 10.1438 16.7316 10.275 17.5881H14.1797V12.3955H10.275C10.1438 13.2575 10.078 14.1281 10.0781 15Z" fill="#1B245C"/>
<path d="M8.43753 15C8.43685 14.1288 8.49578 13.2586 8.61389 12.3955H5.08245C4.63537 14.0973 4.63396 15.8856 5.07835 17.5881H8.60979C8.49511 16.7302 8.43756 15.8656 8.43753 15Z" fill="#1B245C"/>
<path d="M24.3316 10.7549C23.7417 9.45534 22.8867 8.29337 21.8216 7.3434C20.7565 6.39343 19.5048 5.67641 18.1465 5.23828C19.4713 6.43594 20.509 8.38008 21.0791 10.7549H24.3316Z" fill="#1B245C"/>
<path d="M15.8203 5.70581V10.7548H19.3723C18.6709 8.15855 17.3543 6.22261 15.8203 5.70581Z" fill="#1B245C"/>
<path d="M10.623 10.7548H14.1791V5.70581C12.641 6.22261 11.3244 8.15855 10.623 10.7548Z" fill="#1B245C"/>
<path d="M11.851 5.23828C10.4936 5.67712 9.2427 6.39444 8.17836 7.34436C7.11402 8.29428 6.25966 9.45589 5.66992 10.7549H8.91836C9.48848 8.38008 10.5262 6.43594 11.851 5.23828Z" fill="#1B245C"/>
</svg>
