<svg width="21" height="21" viewBox="0 0 21 21" fill="none" xmlns="http://www.w3.org/2000/svg">
<path d="M20.5714 10.2857C20.5714 11.6786 20.2991 13.0089 19.7545 14.2768C19.2098 15.5446 18.4777 16.6384 17.558 17.558C16.6384 18.4777 15.5446 19.2098 14.2768 19.7545C13.0089 20.2991 11.6786 20.5714 10.2857 20.5714C8.75 20.5714 7.29018 20.2478 5.90625 19.6004C4.52232 18.9531 3.34375 18.0402 2.37054 16.8616C2.30804 16.7723 2.27902 16.6719 2.28348 16.5603C2.28795 16.4487 2.32589 16.3571 2.39732 16.2857L4.23214 14.4375C4.32143 14.3571 4.43304 14.317 4.56696 14.317C4.70982 14.3348 4.8125 14.3884 4.875 14.4777C5.52679 15.3259 6.32589 15.9821 7.27232 16.4464C8.21875 16.9107 9.22321 17.1429 10.2857 17.1429C11.2143 17.1429 12.1004 16.9621 12.9442 16.6004C13.7879 16.2388 14.5179 15.75 15.1339 15.1339C15.75 14.5179 16.2388 13.7879 16.6004 12.9442C16.9621 12.1004 17.1429 11.2143 17.1429 10.2857C17.1429 9.35714 16.9621 8.47098 16.6004 7.62723C16.2388 6.78348 15.75 6.05357 15.1339 5.4375C14.5179 4.82143 13.7879 4.33259 12.9442 3.97098C12.1004 3.60938 11.2143 3.42857 10.2857 3.42857C9.41071 3.42857 8.57143 3.58705 7.76786 3.90402C6.96429 4.22098 6.25 4.67411 5.625 5.26339L7.45982 7.11161C7.73661 7.37946 7.79911 7.6875 7.64732 8.03571C7.49554 8.39286 7.23214 8.57143 6.85714 8.57143H0.857143C0.625 8.57143 0.424107 8.48661 0.254464 8.31696C0.0848214 8.14732 0 7.94643 0 7.71429V1.71429C0 1.33929 0.178571 1.07589 0.535714 0.924107C0.883929 0.772321 1.19196 0.834821 1.45982 1.11161L3.20089 2.83929C4.15625 1.9375 5.24777 1.23884 6.47545 0.743304C7.70312 0.247768 8.97321 0 10.2857 0C11.6786 0 13.0089 0.272321 14.2768 0.816964C15.5446 1.36161 16.6384 2.09375 17.558 3.01339C18.4777 3.93304 19.2098 5.02679 19.7545 6.29464C20.2991 7.5625 20.5714 8.89286 20.5714 10.2857ZM12 6.42857V12.4286C12 12.5536 11.9598 12.6562 11.8795 12.7366C11.7991 12.817 11.6964 12.8571 11.5714 12.8571H7.28571C7.16071 12.8571 7.05804 12.817 6.97768 12.7366C6.89732 12.6562 6.85714 12.5536 6.85714 12.4286V11.5714C6.85714 11.4464 6.89732 11.3438 6.97768 11.2634C7.05804 11.183 7.16071 11.1429 7.28571 11.1429H10.2857V6.42857C10.2857 6.30357 10.3259 6.20089 10.4062 6.12054C10.4866 6.04018 10.5893 6 10.7143 6H11.5714C11.6964 6 11.7991 6.04018 11.8795 6.12054C11.9598 6.20089 12 6.30357 12 6.42857Z" fill="#FF6E2E"/>
</svg>
