<svg width="32" height="32" viewBox="0 0 32 32" fill="none" xmlns="http://www.w3.org/2000/svg">
<path d="M16 3C15.9937 3 15.9938 3 15.9875 3C15.9875 3 15.9875 3 15.9812 3C15.975 3 15.9688 3 15.9688 3C8.8 3.01875 3 8.83125 3 16C3 23.1688 8.8 28.9813 15.9688 29C15.975 29 15.9812 29 15.9812 29H15.9875C15.9938 29 15.9937 29 16 29C23.1812 29 29 23.1812 29 16C29 8.81875 23.1812 3 16 3ZM16.5187 10.7812C17.9 10.7438 19.2375 10.5625 20.5312 10.25C20.9188 11.7812 21.1625 13.55 21.2 15.4875H16.5187V10.7812ZM16.5187 9.7375V4.125C17.9187 4.5125 19.3438 6.38125 20.2437 9.25C19.0437 9.5375 17.8 9.7 16.5187 9.7375ZM15.4812 4.1125V9.74375C14.1875 9.70625 12.9313 9.5375 11.725 9.24375C12.6375 6.35625 14.0687 4.475 15.4812 4.1125ZM15.4812 10.7812V15.4812H10.7688C10.8063 13.5437 11.05 11.775 11.4375 10.2437C12.7375 10.5562 14.0938 10.7438 15.4812 10.7812ZM9.71875 15.4812H4.05625C4.16875 12.8062 5.16875 10.3562 6.7625 8.41875C7.91875 9.05625 9.15 9.58125 10.4375 9.96875C10.0125 11.625 9.7625 13.4937 9.71875 15.4812ZM9.71875 16.5187C9.75625 18.5 10.0062 20.375 10.4312 22.0312C9.14375 22.425 7.91875 22.9437 6.75625 23.5812C5.1625 21.6437 4.16875 19.1937 4.05 16.5187H9.71875ZM10.7688 16.5187H15.4812V21.2125C14.0938 21.25 12.7375 21.4375 11.4375 21.7563C11.05 20.225 10.8063 18.4562 10.7688 16.5187ZM15.4812 22.2563V27.8937C14.0687 27.525 12.6375 25.65 11.725 22.7625C12.9313 22.4625 14.1875 22.2938 15.4812 22.2563ZM16.5187 27.875V22.25C17.8 22.2875 19.0438 22.4562 20.25 22.7437C19.3438 25.6187 17.925 27.4875 16.5187 27.875ZM16.5187 21.2125V16.5187H21.2C21.1625 18.45 20.9188 20.2188 20.5312 21.75C19.2375 21.4375 17.9 21.25 16.5187 21.2125ZM22.2437 16.5187H27.9438C27.8313 19.1937 26.8312 21.6375 25.2375 23.5812C24.0687 22.9375 22.8312 22.4125 21.5312 22.0187C21.9562 20.3625 22.2062 18.5 22.2437 16.5187ZM22.2437 15.4812C22.2062 13.5 21.9563 11.6313 21.5375 9.975C22.8375 9.58125 24.075 9.05625 25.2375 8.41875C26.8312 10.3562 27.8313 12.8062 27.9438 15.4875H22.2437V15.4812ZM24.525 7.61875C23.4875 8.16875 22.4 8.625 21.2563 8.96875C20.65 7.0125 19.7938 5.41875 18.7875 4.36875C21 4.9 22.975 6.05 24.525 7.61875ZM13.175 4.38125C12.1687 5.425 11.3188 7.01875 10.7188 8.9625C9.5875 8.61875 8.50625 8.16875 7.48125 7.61875C9.0125 6.05625 10.975 4.9125 13.175 4.38125ZM7.475 24.375C8.5 23.825 9.5875 23.375 10.7125 23.0312C11.3187 24.9813 12.1687 26.5688 13.175 27.6187C10.975 27.0875 9.0125 25.9438 7.475 24.375ZM18.7875 27.6313C19.8 26.5813 20.65 24.9875 21.2625 23.025C22.4062 23.3687 23.4937 23.825 24.5312 24.375C22.9813 25.95 21 27.1 18.7875 27.6313Z" fill="#FF6E2E"/>
</svg>
