<svg xmlns="http://www.w3.org/2000/svg" width="122.332" height="115.07" viewBox="0 0 122.332 115.07">
  <g id="www" transform="translate(-47.306 -107.272)">
    <path id="Path_310" data-name="Path 310" d="M14.194,20.551c3.4-3.4,26.895-28.31,47-18.119s29.726,22.365,40.767,45.3c3.554,9.106,5.945,35.954-26.895,57.187S17.874,93.875,14.194,89.346-15.816,57.921,14.194,20.551Z" transform="matrix(-0.105, 0.995, -0.995, -0.105, 169.638, 118.988)" fill="#fafdff"/>
    <ellipse id="Ellipse_21" data-name="Ellipse 21" cx="42.85" cy="42.85" rx="42.85" ry="42.85" transform="translate(59.296 200.104) rotate(-80.592)" fill="#f0f8ff"/>
    <g id="world-wide-web" transform="translate(79.573 135.532)">
      <path id="Path_384" data-name="Path 384" d="M69.246,51.985C62.2,66.76,51.358,69.952,43.491,69.952a27.554,27.554,0,0,1-22.335-11.64,27.9,27.9,0,0,1-3.42-25.344l.547-1.129A27.74,27.74,0,0,1,43.491,15,27.554,27.554,0,0,1,65.826,26.64,27.9,27.9,0,0,1,69.246,51.985Z" transform="translate(-14.305 -13.29)" fill="#ff6e2e"/>
      <path id="Path_385" data-name="Path 385" d="M281.755,51.985C274.709,66.76,263.867,69.952,256,69.952V15a27.554,27.554,0,0,1,22.335,11.64A27.9,27.9,0,0,1,281.755,51.985Z" transform="translate(-226.814 -13.29)" fill="#d44303"/>
      <path id="Path_386" data-name="Path 386" d="M53.148,12.358A29.334,29.334,0,0,0,29.412,0,29.316,29.316,0,0,0,2.528,18.207l-.582,1.2c-3.14,9.563-1.918,18.62,3.728,26.61A29.335,29.335,0,0,0,29.412,58.373a29.412,29.412,0,0,0,26.747-17.8l.513-1.026C60.09,29.823,58.892,20.478,53.148,12.358ZM8.479,44.03A26.142,26.142,0,0,1,5.3,20.225l.445-.924A26.067,26.067,0,0,1,20.587,5.062c-4.138,5.4-6.635,15.916-6.327,19.336a1.012,1.012,0,0,0-.069.342C13.3,36.2,15.9,47.257,20.792,53.448A26.107,26.107,0,0,1,8.479,44.03ZM27.7,54.645a9.246,9.246,0,0,1-3.523-2.508c-4.788-5.165-7.422-16.075-6.567-27.123v-.308c0-.1.034-.239.034-.342C18.638,13.727,22.81,5.336,27.7,3.728Zm3.42-.034V3.728c5.267,1.744,9.68,11.435,10.192,23,.479,10.671-2.189,20.693-6.806,25.55A8.659,8.659,0,0,1,31.122,54.61Zm22.4-16.463C49.694,46.219,44.29,51.19,38.031,53.413c4.583-5.78,7.182-16.087,6.7-26.826-.41-9.1-2.976-16.942-6.7-21.662A25.93,25.93,0,0,1,53.525,38.148Z" transform="translate(-0.225)" fill="#913005"/>
      <path id="Path_387" data-name="Path 387" d="M279.737,12.358A29.334,29.334,0,0,0,256,0V58.373a29.412,29.412,0,0,0,26.747-17.8l.513-1.026C286.678,29.823,285.481,20.478,279.737,12.358ZM257.71,54.61V3.728c5.267,1.744,9.68,11.435,10.192,23,.479,10.671-2.189,20.693-6.806,25.55A8.659,8.659,0,0,1,257.71,54.61Zm22.4-16.463c-3.831,8.072-9.235,13.043-15.494,15.266,4.583-5.78,7.182-16.087,6.7-26.826-.41-9.1-2.976-16.942-6.7-21.662a25.93,25.93,0,0,1,15.494,33.222Z" transform="translate(-226.814)" fill="#913005"/>
      <path id="Path_388" data-name="Path 388" d="M53.128,151H5.244A5.222,5.222,0,0,0,0,156.13v13.681a5.222,5.222,0,0,0,5.244,5.13H53.128a5.222,5.222,0,0,0,5.244-5.13V156.13A5.222,5.222,0,0,0,53.128,151Z" transform="translate(0 -133.785)" fill="#d44303"/>
      <path id="Path_389" data-name="Path 389" d="M285.186,156.13v13.681a5.222,5.222,0,0,1-5.244,5.13H256V151h23.942A5.222,5.222,0,0,1,285.186,156.13Z" transform="translate(-226.814 -133.785)" fill="#913005"/>
      <path id="Path_390" data-name="Path 390" d="M197.913,213.446l-3.42,6.841a1.716,1.716,0,0,1-3.078,0l-1.881-3.762-1.881,3.762a1.794,1.794,0,0,1-3.078,0l-3.42-6.841a1.713,1.713,0,0,1,3.078-1.5l1.881,3.762,1.881-3.762a1.777,1.777,0,0,1,3.078,0l1.881,3.762,1.881-3.762a1.713,1.713,0,0,1,3.078,1.5Z" transform="translate(-160.347 -186.928)" fill="#fff"/>
      <path id="Path_391" data-name="Path 391" d="M342.565,221.271a1.711,1.711,0,0,1-1.53-.945l-1.891-3.781-1.891,3.781a1.781,1.781,0,0,1-3.06,0l-3.277-6.555a1.692,1.692,0,0,1,1.172-2.751,1.882,1.882,0,0,1,1.744.935l1.891,3.781,1.891-3.781a1.781,1.781,0,0,1,3.06,0l1.89,3.781,1.891-3.781a1.71,1.71,0,0,1,3.06,1.53l-3.42,6.841A1.711,1.711,0,0,1,342.565,221.271Z" transform="translate(-292.857 -186.954)" fill="#fff"/>
      <path id="Path_392" data-name="Path 392" d="M46.5,211.013a1.789,1.789,0,0,0-1.64.942l-1.89,3.781-1.891-3.781a1.734,1.734,0,0,0-3.06,0l-1.891,3.781-1.89-3.781a1.71,1.71,0,1,0-3.06,1.53l3.42,6.841a1.71,1.71,0,0,0,3.06,0l1.891-3.781,1.891,3.781a1.71,1.71,0,0,0,3.06,0l3.222-6.443a1.73,1.73,0,0,0-1.221-2.869Z" transform="translate(-27.461 -186.954)" fill="#fff"/>
      <path id="Path_393" data-name="Path 393" d="M264.38,213.446l-3.42,6.841a1.716,1.716,0,0,1-3.078,0L256,216.524v-5.473a1.725,1.725,0,0,1,1.539.889l1.881,3.762,1.881-3.762a1.713,1.713,0,0,1,3.078,1.5Z" transform="translate(-226.814 -186.928)" fill="#fff"/>
    </g>
  </g>
</svg>
