<svg width="24" height="24" viewBox="0 0 24 24" fill="none" xmlns="http://www.w3.org/2000/svg">
<path d="M4.99977 5.62414H19.9998C20.175 5.62406 20.35 5.63518 20.5238 5.65742C20.4649 5.24388 20.3229 4.84655 20.1062 4.48939C19.8896 4.13222 19.6029 3.82263 19.2634 3.57927C18.9239 3.33591 18.5386 3.16382 18.1308 3.07338C17.723 2.98294 17.3011 2.97602 16.8905 3.05305L4.55445 5.15914H4.54039C3.76605 5.30722 3.07745 5.74533 2.61523 6.38399C3.31161 5.88867 4.14521 5.62304 4.99977 5.62414Z" fill="#B9BCBE"/>
<path d="M20 6.74902H5C4.20462 6.74989 3.44206 7.06624 2.87964 7.62866C2.31722 8.19108 2.00087 8.95364 2 9.74902V18.749C2.00087 19.5444 2.31722 20.307 2.87964 20.8694C3.44206 21.4318 4.20462 21.7482 5 21.749H20C20.7954 21.7482 21.5579 21.4318 22.1204 20.8694C22.6828 20.307 22.9991 19.5444 23 18.749V9.74902C22.9991 8.95364 22.6828 8.19108 22.1204 7.62866C21.5579 7.06624 20.7954 6.74989 20 6.74902ZM17.7734 15.749C17.4768 15.749 17.1868 15.661 16.9401 15.4962C16.6934 15.3314 16.5011 15.0971 16.3876 14.823C16.2741 14.549 16.2444 14.2474 16.3023 13.9564C16.3601 13.6654 16.503 13.3981 16.7128 13.1884C16.9226 12.9786 17.1898 12.8357 17.4808 12.7778C17.7718 12.72 18.0734 12.7497 18.3475 12.8632C18.6216 12.9767 18.8558 13.169 19.0206 13.4157C19.1855 13.6623 19.2734 13.9524 19.2734 14.249C19.2734 14.6468 19.1154 15.0284 18.8341 15.3097C18.5528 15.591 18.1713 15.749 17.7734 15.749Z" fill="#B9BCBE"/>
<path d="M2.02344 12.9131V8.24902C2.02344 7.23324 2.58594 5.53027 4.53828 5.16137C6.19531 4.85059 7.83594 4.85059 7.83594 4.85059C7.83594 4.85059 8.91406 5.60059 8.02344 5.60059C7.13281 5.60059 7.15625 6.74902 8.02344 6.74902C8.89062 6.74902 8.02344 7.85059 8.02344 7.85059L4.53125 11.8115L2.02344 12.9131Z" fill="#B9BCBE"/>
</svg>
