<svg width="20" height="20" viewBox="0 0 20 20" fill="none" xmlns="http://www.w3.org/2000/svg">
<g clip-path="url(#clip0_97_3006)">
<path d="M10 20C15.5228 20 20 15.5228 20 10C20 4.47715 15.5228 0 10 0C4.47715 0 0 4.47715 0 10C0 15.5228 4.47715 20 10 20Z" fill="url(#paint0_linear_97_3006)"/>
<path d="M9.99963 4.18787C6.78967 4.18787 4.1875 6.79003 4.1875 10C4.1875 13.21 6.78967 15.8121 9.99963 15.8121C13.2096 15.8121 15.8118 13.21 15.8118 10C15.8118 6.79003 13.2096 4.18787 9.99963 4.18787ZM14.3796 7.55716C14.5861 7.92595 14.7441 8.31902 14.8508 8.72837H12.8967C12.8245 8.33068 12.7183 7.93849 12.5776 7.55716H14.3796ZM12.3604 10.8354L11.813 9.16697L12.1623 9.01259L12.5516 10.3117L12.8531 9.4822H13.2374L13.5389 10.3117L13.9282 9.01259L14.2774 9.16697L13.7301 10.8354L13.3863 10.9874L13.0452 9.84914L12.7042 10.9874L12.3604 10.8354ZM12.4013 11.2716C12.3233 11.6686 12.2088 12.0593 12.057 12.4375H10.243V11.2716H12.4013ZM13.5445 6.45515C13.7373 6.64791 13.9121 6.8538 14.0687 7.07048H12.3766C12.0437 6.3447 11.5797 5.66908 10.9848 5.083C11.9484 5.274 12.8342 5.74488 13.5445 6.45515ZM10.243 5.06888C10.9277 5.6383 11.4584 6.32273 11.8349 7.07048H10.243V5.06888ZM10.243 7.55716H12.0549C12.2077 7.93697 12.323 8.32947 12.4013 8.72837H10.243V7.55716ZM9.75629 5.07499V7.07048H8.17166C8.54685 6.32541 9.07508 5.6432 9.75629 5.07499ZM7.60529 8.72839C7.68361 8.32949 7.79885 7.93699 7.95166 7.55718H9.75627V8.72839H7.60529ZM8.18623 9.16699L7.63893 10.8354L7.2951 10.9874L6.95406 9.84916L6.61301 10.9874L6.26918 10.8354L5.72189 9.16699L6.07111 9.01261L6.46037 10.3118L6.76189 9.48222H7.14623L7.44775 10.3118L7.83703 9.01261L8.18623 9.16699ZM6.45478 6.45515C7.16723 5.74269 8.05639 5.27119 9.02344 5.08132C8.42771 5.66779 7.96326 6.344 7.62994 7.07048H5.93051C6.08721 6.8538 6.26201 6.64791 6.45478 6.45515ZM5.61961 7.55716H7.42895C7.28824 7.93847 7.18209 8.33068 7.10986 8.72837H5.14853C5.25514 8.31902 5.4132 7.92597 5.61961 7.55716ZM5.61666 12.4375C5.41172 12.0702 5.25465 11.679 5.14853 11.2716H7.10986C7.18176 11.6675 7.28725 12.0579 7.42695 12.4375H5.61666ZM6.45478 13.5448C6.26043 13.3505 6.08434 13.1428 5.92666 12.9242H7.62754C7.96098 13.6527 8.42627 14.3308 9.02342 14.9186C8.05639 14.7288 7.16721 14.2573 6.45478 13.5448ZM9.75629 14.925C9.07346 14.3554 8.54432 13.6713 8.16896 12.9242H9.75629V14.925ZM9.75629 12.4375H7.94953C7.79775 12.0594 7.68324 11.6686 7.60531 11.2716H9.75629V12.4375ZM9.9968 9.84914L9.65572 10.9874L9.31191 10.8354L8.76461 9.16697L9.11387 9.01259L9.50313 10.3117L9.80463 9.4822H10.189L10.4905 10.3117L10.8797 9.01259L11.229 9.16697L10.6817 10.8354L10.3379 10.9874L9.9968 9.84914ZM10.243 14.9311V12.9242H11.8376C11.4609 13.674 10.9294 14.3603 10.243 14.9311ZM13.5445 13.5448C12.8342 14.2551 11.9484 14.726 10.9848 14.917C11.5812 14.3295 12.0459 13.6519 12.379 12.9242H14.0726C13.9149 13.1428 13.7388 13.3505 13.5445 13.5448ZM14.3826 12.4375H12.5796C12.7193 12.0579 12.8248 11.6675 12.8967 11.2716H14.8507C14.7446 11.679 14.5875 12.0702 14.3826 12.4375Z" fill="white"/>
</g>
<defs>
<linearGradient id="paint0_linear_97_3006" x1="13.4211" y1="19.3995" x2="6.57894" y2="0.600486" gradientUnits="userSpaceOnUse">
<stop stop-color="#2B3990"/>
<stop offset="0.1544" stop-color="#2B4296"/>
<stop offset="0.4063" stop-color="#2A5AA8"/>
<stop offset="0.7222" stop-color="#2882C4"/>
<stop offset="1" stop-color="#27AAE1"/>
</linearGradient>
<clipPath id="clip0_97_3006">
<rect width="20" height="20" fill="white"/>
</clipPath>
</defs>
</svg>
