<svg width="20" height="20" viewBox="0 0 20 20" fill="none" xmlns="http://www.w3.org/2000/svg">
<g clip-path="url(#clip0_247_3049)">
<path d="M6.25 18.125C6.94036 18.125 7.5 17.5654 7.5 16.875C7.5 16.1846 6.94036 15.625 6.25 15.625C5.55964 15.625 5 16.1846 5 16.875C5 17.5654 5.55964 18.125 6.25 18.125Z" fill="#FF6E2E"/>
<path d="M14.375 18.125C15.0654 18.125 15.625 17.5654 15.625 16.875C15.625 16.1846 15.0654 15.625 14.375 15.625C13.6846 15.625 13.125 16.1846 13.125 16.875C13.125 17.5654 13.6846 18.125 14.375 18.125Z" fill="#FF6E2E"/>
<path d="M3.30469 5.625H17.3203L15.2578 12.8437C15.1842 13.1057 15.0266 13.3363 14.8093 13.5C14.5919 13.6638 14.3268 13.7516 14.0547 13.75H6.57031C6.29819 13.7516 6.03308 13.6638 5.81572 13.5C5.59836 13.3363 5.44078 13.1057 5.36719 12.8437L2.53906 2.95313C2.50169 2.82246 2.42275 2.70754 2.3142 2.62578C2.20565 2.54401 2.0734 2.49986 1.9375 2.5H0.625" stroke="#FF6E2E" stroke-linecap="round" stroke-linejoin="round"/>
</g>
<defs>
<clipPath id="clip0_247_3049">
<rect width="20" height="20" fill="white"/>
</clipPath>
</defs>
</svg>
