<svg width="20" height="20" viewBox="0 0 20 20" fill="none" xmlns="http://www.w3.org/2000/svg">
<path d="M19.5837 4.99996C19.5837 4.77895 19.4959 4.56698 19.3396 4.4107C19.1833 4.25442 18.9713 4.16663 18.7503 4.16663H10.0003C9.77931 4.16663 9.56735 4.25442 9.41107 4.4107C9.25479 4.56698 9.16699 4.77895 9.16699 4.99996C9.16699 5.22097 9.25479 5.43293 9.41107 5.58921C9.56735 5.7455 9.77931 5.83329 10.0003 5.83329H18.7503C18.9713 5.83329 19.1833 5.7455 19.3396 5.58921C19.4959 5.43293 19.5837 5.22097 19.5837 4.99996Z" fill="#1B245C"/>
<path d="M1.25033 5.83334H3.47949C3.67607 6.38935 4.06288 6.85797 4.57156 7.15636C5.08024 7.45476 5.67802 7.56373 6.25927 7.464C6.84052 7.36428 7.36779 7.06228 7.74791 6.61139C8.12803 6.1605 8.33651 5.58974 8.33651 5.00001C8.33651 4.41027 8.12803 3.83951 7.74791 3.38862C7.36779 2.93773 6.84052 2.63573 6.25927 2.53601C5.67802 2.43628 5.08024 2.54525 4.57156 2.84365C4.06288 3.14204 3.67607 3.61066 3.47949 4.16667H1.25033C1.02931 4.16667 0.81735 4.25447 0.66107 4.41075C0.50479 4.56703 0.416992 4.77899 0.416992 5.00001C0.416992 5.22102 0.50479 5.43298 0.66107 5.58926C0.81735 5.74554 1.02931 5.83334 1.25033 5.83334ZM5.83366 4.16667C5.99848 4.16667 6.15959 4.21555 6.29663 4.30711C6.43367 4.39868 6.54049 4.52883 6.60356 4.6811C6.66663 4.83337 6.68313 5.00093 6.65098 5.16258C6.61883 5.32423 6.53946 5.47272 6.42291 5.58926C6.30637 5.7058 6.15788 5.78517 5.99623 5.81733C5.83458 5.84948 5.66703 5.83298 5.51476 5.76991C5.36248 5.70683 5.23234 5.60002 5.14077 5.46298C5.0492 5.32594 5.00033 5.16482 5.00033 5.00001C5.00033 4.77899 5.08812 4.56703 5.2444 4.41075C5.40068 4.25447 5.61265 4.16667 5.83366 4.16667Z" fill="#1B245C"/>
<path d="M18.7496 9.16667H15.6871C15.4905 8.61066 15.1037 8.14204 14.595 7.84365C14.0864 7.54525 13.4886 7.43628 12.9073 7.53601C12.3261 7.63573 11.7988 7.93773 11.4187 8.38862C11.0386 8.83951 10.8301 9.41027 10.8301 10C10.8301 10.5897 11.0386 11.1605 11.4187 11.6114C11.7988 12.0623 12.3261 12.3643 12.9073 12.464C13.4886 12.5637 14.0864 12.4548 14.595 12.1564C15.1037 11.858 15.4905 11.3894 15.6871 10.8333H18.7496C18.9706 10.8333 19.1826 10.7455 19.3389 10.5893C19.4951 10.433 19.5829 10.221 19.5829 10C19.5829 9.77899 19.4951 9.56703 19.3389 9.41075C19.1826 9.25447 18.9706 9.16667 18.7496 9.16667ZM13.3329 10.8333C13.1681 10.8333 13.007 10.7845 12.87 10.6929C12.7329 10.6013 12.6261 10.4712 12.563 10.3189C12.5 10.1666 12.4835 9.99908 12.5156 9.83743C12.5478 9.67578 12.6271 9.52729 12.7437 9.41075C12.8602 9.29421 13.0087 9.21484 13.1704 9.18268C13.332 9.15053 13.4996 9.16703 13.6518 9.23011C13.8041 9.29318 13.9343 9.39999 14.0258 9.53703C14.1174 9.67407 14.1663 9.83519 14.1663 10C14.1663 10.221 14.0785 10.433 13.9222 10.5893C13.7659 10.7455 13.5539 10.8333 13.3329 10.8333Z" fill="#1B245C"/>
<path d="M9.16699 9.16663H1.25033C1.02931 9.16663 0.81735 9.25442 0.66107 9.4107C0.50479 9.56698 0.416992 9.77895 0.416992 9.99996C0.416992 10.221 0.50479 10.4329 0.66107 10.5892C0.81735 10.7455 1.02931 10.8333 1.25033 10.8333H9.16699C9.38801 10.8333 9.59997 10.7455 9.75625 10.5892C9.91253 10.4329 10.0003 10.221 10.0003 9.99996C10.0003 9.77895 9.91253 9.56698 9.75625 9.4107C9.59997 9.25442 9.38801 9.16663 9.16699 9.16663Z" fill="#1B245C"/>
<path d="M18.7497 14.1666H11.6663C11.4453 14.1666 11.2334 14.2544 11.0771 14.4107C10.9208 14.567 10.833 14.7789 10.833 15C10.833 15.221 10.9208 15.4329 11.0771 15.5892C11.2334 15.7455 11.4453 15.8333 11.6663 15.8333H18.7497C18.9707 15.8333 19.1827 15.7455 19.3389 15.5892C19.4952 15.4329 19.583 15.221 19.583 15C19.583 14.7789 19.4952 14.567 19.3389 14.4107C19.1827 14.2544 18.9707 14.1666 18.7497 14.1666Z" fill="#1B245C"/>
<path d="M7.50033 12.5C6.98383 12.5006 6.48019 12.6611 6.05864 12.9596C5.63709 13.258 5.31833 13.6797 5.14616 14.1667H1.25033C1.02931 14.1667 0.81735 14.2545 0.66107 14.4107C0.50479 14.567 0.416992 14.779 0.416992 15C0.416992 15.221 0.50479 15.433 0.66107 15.5893C0.81735 15.7455 1.02931 15.8333 1.25033 15.8333H5.14616C5.29898 16.2656 5.5677 16.6475 5.92296 16.9372C6.27821 17.227 6.7063 17.4135 7.16043 17.4764C7.61455 17.5392 8.07721 17.476 8.49782 17.2936C8.91842 17.1112 9.28077 16.8167 9.54525 16.4422C9.80972 16.0677 9.96613 15.6277 9.99737 15.1704C10.0286 14.713 9.93348 14.2558 9.72238 13.8488C9.51128 13.4419 9.19234 13.1008 8.80044 12.8629C8.40854 12.625 7.95878 12.4995 7.50033 12.5ZM7.50033 15.8333C7.33551 15.8333 7.17439 15.7845 7.03735 15.6929C6.90031 15.6013 6.7935 15.4712 6.73043 15.3189C6.66735 15.1666 6.65085 14.9991 6.683 14.8374C6.71516 14.6758 6.79453 14.5273 6.91107 14.4107C7.02761 14.2942 7.1761 14.2148 7.33775 14.1827C7.4994 14.1505 7.66696 14.167 7.81923 14.2301C7.9715 14.2932 8.10165 14.4 8.19322 14.537C8.28478 14.6741 8.33366 14.8352 8.33366 15C8.33366 15.221 8.24586 15.433 8.08958 15.5893C7.9333 15.7455 7.72134 15.8333 7.50033 15.8333Z" fill="#1B245C"/>
</svg>
