<svg width="16" height="16" viewBox="0 0 16 16" fill="none" xmlns="http://www.w3.org/2000/svg">
<circle cx="8" cy="8" r="8" fill="#E5E5E5"/>
<path d="M10.9409 5.94141C11.1851 5.69727 11.1851 5.30078 10.9409 5.05664C10.6968 4.8125 10.3003 4.8125 10.0562 5.05664L7.99951 7.11523L5.94092 5.05859C5.69678 4.81445 5.30029 4.81445 5.05615 5.05859C4.81201 5.30273 4.81201 5.69922 5.05615 5.94336L7.11475 8L5.05811 10.0586C4.81396 10.3027 4.81396 10.6992 5.05811 10.9434C5.30225 11.1875 5.69873 11.1875 5.94287 10.9434L7.99951 8.88477L10.0581 10.9414C10.3022 11.1855 10.6987 11.1855 10.9429 10.9414C11.187 10.6973 11.187 10.3008 10.9429 10.0566L8.88428 8L10.9409 5.94141Z" fill="#737373"/>
</svg>
