<svg width="24" height="24" viewBox="0 0 24 24" fill="none" xmlns="http://www.w3.org/2000/svg">
<path d="M20.0479 12.0002C19.5769 12.0002 19.1175 11.9221 18.6774 11.7854V17.0001H6.31981V11.7854C5.87971 11.9221 5.41645 12.0002 4.94739 12.0002C4.73699 12.0002 4.52659 11.9846 4.28144 11.9572C4.15482 11.9377 4.00812 11.8752 3.85292 11.8322L3.85331 20.125C3.85331 21.1606 4.68294 22 5.67163 22H19.2646C20.288 22 21.0829 21.1606 21.0829 20.125L21.0843 11.8322C20.9242 11.8745 20.7721 11.938 20.6056 11.9604C20.4687 11.9846 20.2603 12.0002 20.0479 12.0002ZM22.5225 6.055L20.3097 2.51288C20.1126 2.19453 19.7611 2 19.3858 2H5.61333C5.2382 2 4.88678 2.19449 4.6895 2.51288L2.47587 6.055C1.33353 7.88426 2.34422 10.426 4.47949 10.719C4.63314 10.7385 4.79104 10.7502 4.94778 10.7502C5.95692 10.7502 6.85064 10.3057 7.46447 9.6186C8.07636 10.3049 8.97587 10.7502 9.97961 10.7502C10.9888 10.7502 11.8825 10.3057 12.4963 9.6186C13.1105 10.3049 14.0062 10.7502 15.0138 10.7502C16.0241 10.7502 16.9166 10.3057 17.5305 9.6186C18.1447 10.3049 19.0403 10.7502 20.0441 10.7502C20.2039 10.7502 20.3573 10.7395 20.5108 10.7192C22.6538 10.4299 23.6691 7.88699 22.5225 6.055Z" fill="#B9BCBE"/>
</svg>
