<svg width="16" height="15" viewBox="0 0 16 15" fill="none" xmlns="http://www.w3.org/2000/svg">
<g clip-path="url(#clip0_142_3276)">
<path d="M11.75 6.09375H10.8125C10.8121 5.72091 10.6638 5.36347 10.4002 5.09983C10.1365 4.8362 9.77909 4.68791 9.40625 4.6875V3.75C10.0276 3.75071 10.6234 3.99786 11.0628 4.43725C11.5021 4.87663 11.7493 5.47237 11.75 6.09375Z" fill="white"/>
<path d="M13.625 6.09375H12.6875C12.6865 5.22381 12.3405 4.38977 11.7254 3.77462C11.1102 3.15948 10.2762 2.81347 9.40625 2.8125V1.875C10.5248 1.87624 11.5971 2.32111 12.388 3.11201C13.1789 3.90291 13.6238 4.97525 13.625 6.09375Z" fill="white"/>
<path d="M10.031 10.0698L11.081 9.01983C11.2215 8.87925 11.4002 8.783 11.5949 8.74301C11.7896 8.70301 11.9918 8.72103 12.1763 8.79483L13.4551 9.30638C13.6436 9.38179 13.8052 9.51197 13.919 9.68011C14.0328 9.84824 14.0936 10.0466 14.0935 10.2496V12.5753C14.0938 12.7135 14.0659 12.8503 14.0115 12.9774C13.9571 13.1044 13.8773 13.219 13.7771 13.3142C13.6769 13.4094 13.5583 13.4831 13.4285 13.5308C13.2988 13.5785 13.1607 13.5993 13.0227 13.5918C4.05933 13.0338 2.24916 5.44285 1.91283 2.53496C1.89655 2.39281 1.91056 2.24883 1.95393 2.11249C1.9973 1.97614 2.06905 1.85053 2.16446 1.7439C2.25986 1.63728 2.37676 1.55207 2.50747 1.49387C2.63817 1.43568 2.77972 1.40582 2.9228 1.40625H5.20692C5.4099 1.40625 5.60823 1.46707 5.77631 1.58087C5.9444 1.69467 6.07452 1.85623 6.14991 2.04469L6.66145 3.32344C6.73525 3.508 6.75327 3.71016 6.71327 3.90486C6.67328 4.09956 6.57703 4.27825 6.43645 4.41877L5.38645 5.46877C5.38645 5.46877 5.9685 9.56204 10.031 10.0698Z" fill="white"/>
</g>
<defs>
<clipPath id="clip0_142_3276">
<rect width="15" height="15" fill="white" transform="translate(0.5)"/>
</clipPath>
</defs>
</svg>
