<svg width="24" height="24" viewBox="0 0 24 24" fill="none" xmlns="http://www.w3.org/2000/svg">
<path d="M18.1871 17.1376H6.82461C6.63711 17.1376 6.48711 17.0626 6.41211 16.9126C6.29961 16.7626 6.29961 16.575 6.37461 16.425L7.34961 13.9501L6.37461 4.72506H3.22461V3.67505H6.82461C7.08711 3.67505 7.31211 3.86255 7.34961 4.12505L8.39961 13.9126C8.39961 13.9876 8.39961 14.0625 8.36211 14.175L7.61211 16.05H18.1871V17.1376Z" fill="#FF6E2E"/>
<path d="M7.98711 14.55L7.76211 13.5375L19.7246 11.0625V6.82503H7.34961V5.77502H20.2496C20.5496 5.77502 20.7746 6.00002 20.7746 6.30002V11.475C20.7746 11.7375 20.5871 11.925 20.3621 11.9625L7.98711 14.55Z" fill="#FF6E2E"/>
<path d="M18.7119 20.25C17.5869 20.25 16.6494 19.3125 16.6494 18.1875C16.6494 17.0625 17.5869 16.125 18.7119 16.125C19.8369 16.125 20.7744 17.0625 20.7744 18.1875C20.7744 19.3125 19.8369 20.25 18.7119 20.25ZM18.7119 17.1375C18.1494 17.1375 17.6619 17.5875 17.6619 18.1875C17.6619 18.7875 18.1119 19.2375 18.7119 19.2375C19.3119 19.2375 19.7619 18.7875 19.7619 18.1875C19.7619 17.5875 19.2744 17.1375 18.7119 17.1375Z" fill="#FF6E2E"/>
<path d="M6.33691 20.25C5.21191 20.25 4.27441 19.3125 4.27441 18.1875C4.27441 17.0625 5.21191 16.125 6.33691 16.125C7.46191 16.125 8.39941 17.0625 8.39941 18.1875C8.39941 19.3125 7.46191 20.25 6.33691 20.25ZM6.33691 17.1375C5.77441 17.1375 5.28691 17.5875 5.28691 18.1875C5.28691 18.7875 5.73691 19.2375 6.33691 19.2375C6.93691 19.2375 7.38691 18.7875 7.38691 18.1875C7.38691 17.5875 6.89941 17.1375 6.33691 17.1375Z" fill="#FF6E2E"/>
</svg>
